<svg width="262" height="81" viewBox="0 0 262 81" fill="none" xmlns="http://www.w3.org/2000/svg">
<path d="M166.056 66.0223C166.056 65.243 165.854 64.6542 165.454 64.2553C165.049 63.8566 164.459 63.6573 163.678 63.6573H162.707V68.3606H163.856C165.324 68.3606 166.056 67.5813 166.056 66.0223ZM171.469 65.8276C171.469 67.128 171.173 68.2833 170.587 69.2938C170 70.3043 169.159 71.0835 168.071 71.6362C166.982 72.1893 165.713 72.4655 164.269 72.4655H162.707V78.5826H157.587V59.552H164.552C166.942 59.552 168.694 60.0594 169.806 61.079C170.914 62.0938 171.469 63.6797 171.469 65.8276ZM155.704 69.8877C155.704 72.937 155.081 75.2068 153.839 76.6883C152.593 78.17 150.677 78.909 148.087 78.909C145.668 78.909 143.836 78.17 142.583 76.6883C141.333 75.2068 140.706 72.9732 140.706 69.9915V59.552H145.851V70.2091C145.851 71.4278 146.053 72.366 146.461 73.0276C146.87 73.6843 147.452 74.0153 148.213 74.0153C148.977 74.0153 149.56 73.7072 149.96 73.0864C150.361 72.4655 150.559 71.5502 150.559 70.3405V59.552H155.704V69.8877ZM133.945 65.5919C133.945 64.9532 133.771 64.45 133.423 64.0786C133.079 63.7068 132.533 63.5213 131.793 63.5213H130.742V67.871H131.664C132.351 67.871 132.901 67.6536 133.318 67.2232C133.735 66.7882 133.945 66.2443 133.945 65.5919ZM134.438 78.5826L133.168 74.482C132.925 73.6755 132.606 73.0455 132.218 72.5836C131.826 72.1257 131.401 71.895 130.944 71.895H130.742V78.5825H125.621V59.552H132.416C134.794 59.552 136.55 59.987 137.682 60.8616C138.815 61.7315 139.381 63.0364 139.381 64.7809C139.381 66.0905 139.054 67.187 138.394 68.0702C137.735 68.9586 136.752 69.5972 135.45 69.9962V70.0506C136.17 70.2951 136.768 70.6984 137.246 71.2558C137.727 71.8129 138.156 72.6421 138.532 73.7388L140.207 78.5825L134.438 78.5826ZM124.13 77.3276C123.491 77.7351 122.537 78.1023 121.263 78.4242C119.993 78.7455 118.779 78.909 117.626 78.909C114.653 78.909 112.352 78.0753 110.734 76.4077C109.116 74.7401 108.307 72.4023 108.307 69.3936C108.307 67.3771 108.716 65.5826 109.533 64.015C110.35 62.4517 111.503 61.2603 112.987 60.4445C114.472 59.6336 116.223 59.2255 118.237 59.2255C119.714 59.2255 121.291 59.4613 122.966 59.928V64.9348C122.185 64.5361 121.433 64.2599 120.712 64.1057C119.993 63.9517 119.208 63.8748 118.354 63.8748C116.947 63.8748 115.827 64.3505 114.993 65.2974C114.16 66.2443 113.744 67.5446 113.744 69.1985C113.744 70.7846 114.092 72.0259 114.791 72.9187C115.491 73.8115 116.466 74.2598 117.72 74.2598C118.302 74.2598 118.735 74.2237 119.01 74.1513V71.4324H115.758V67.0827H124.13V77.3276Z" fill="white"/>
<path d="M260.187 72.8189C260.187 74.0831 259.884 75.1843 259.281 76.1221C258.678 77.0603 257.829 77.758 256.741 78.2199C255.653 78.6778 254.342 78.909 252.809 78.909C251.034 78.909 249.408 78.5735 247.931 77.8985V72.6829C248.643 73.2677 249.428 73.7434 250.289 74.1014C251.151 74.4595 251.952 74.6404 252.696 74.6404C253.254 74.6404 253.691 74.5273 253.998 74.3007C254.306 74.0739 254.46 73.748 254.46 73.313C254.46 73.0048 254.383 72.7282 254.229 72.4975C254.075 72.2617 253.841 72.0441 253.529 71.8404C253.218 71.6362 252.639 71.3556 251.79 71.0022C249.056 69.824 247.689 67.9211 247.689 65.2929C247.689 63.4531 248.312 61.9806 249.561 60.8795C250.807 59.7786 252.482 59.2256 254.585 59.2256C255.176 59.2256 255.721 59.2531 256.219 59.3071C256.717 59.357 257.17 59.4252 257.579 59.5021C257.983 59.5837 258.553 59.7333 259.289 59.9554V64.7988C257.858 63.9288 256.454 63.4938 255.07 63.4938C254.5 63.4938 254.043 63.6119 253.695 63.852C253.348 64.0923 253.173 64.4183 253.173 64.8355C253.173 65.2292 253.315 65.5602 253.594 65.823C253.873 66.0813 254.46 66.421 255.354 66.8381C257.113 67.6308 258.359 68.5052 259.091 69.4527C259.823 70.3949 260.187 71.5185 260.187 72.8189ZM247.586 72.8189C247.586 74.0831 247.282 75.1843 246.679 76.1221C246.077 77.0603 245.227 77.758 244.139 78.2199C243.051 78.6778 241.741 78.909 240.208 78.909C238.432 78.909 236.806 78.5735 235.33 77.8985V72.6829C236.042 73.2677 236.826 73.7434 237.688 74.1014C238.55 74.4595 239.35 74.6404 240.094 74.6404C240.653 74.6404 241.09 74.5273 241.397 74.3006C241.705 74.0739 241.858 73.748 241.858 73.313C241.858 73.0048 241.781 72.7282 241.628 72.4975C241.474 72.2617 241.239 72.0441 240.928 71.8404C240.616 71.6362 240.038 71.3556 239.189 71.0021C236.455 69.824 235.087 67.9211 235.087 65.2929C235.087 63.4531 235.71 61.9806 236.96 60.8795C238.206 59.7786 239.88 59.2255 241.984 59.2255C242.574 59.2255 243.12 59.253 243.618 59.3071C244.115 59.357 244.568 59.4252 244.977 59.5021C245.381 59.5837 245.952 59.7333 246.688 59.9554V64.7988C245.256 63.9288 243.852 63.4938 242.469 63.4938C241.899 63.4938 241.442 63.6119 241.094 63.852C240.746 64.0923 240.572 64.4182 240.572 64.8355C240.572 65.2292 240.713 65.5601 240.993 65.823C241.272 66.0813 241.858 66.421 242.752 66.8381C244.512 67.6307 245.758 68.5052 246.489 69.4526C247.222 70.3949 247.586 71.5185 247.586 72.8189ZM226.288 63.6843H226.171C226.154 63.8973 226.102 64.2462 226.005 64.731C225.911 65.2205 225.43 67.3093 224.569 70.9974H227.821L226.635 65.823C226.47 65.0617 226.352 64.3459 226.288 63.6843ZM229.519 78.5826L228.771 75.0753H223.699L222.894 78.5826H217.361L223.213 59.552H229.568L235.077 78.5826H229.519ZM211.749 78.5826V68.1518C211.749 67.1688 211.777 66.0905 211.83 64.9123L211.866 64.0379H211.725C211.474 65.5332 211.28 66.5662 211.146 67.1418L208.642 78.5825H203.833L201.216 67.2774C201.143 66.992 200.957 65.9138 200.658 64.0379H200.516C200.626 67.0103 200.682 68.8679 200.682 69.6111V78.5825H196.192V59.552H203.857L206.191 69.8829C206.247 70.0959 206.321 70.5263 206.413 71.1787C206.503 71.8267 206.559 72.3299 206.584 72.6829H206.656C206.742 71.8766 206.879 70.9296 207.069 69.833L209.249 59.552H216.797V78.5825L211.749 78.5826Z" fill="white"/>
<path fill-rule="evenodd" clip-rule="evenodd" d="M185.58 59.2579C189.542 60.0031 192.661 63.2277 193.365 67.3118H195.231V70.8165H193.366C192.662 74.901 189.542 78.1259 185.58 78.8711V80.6589H182.076V74.1582H185.58V75.5568C187.803 74.9226 189.551 73.112 190.15 70.8165H188.731V67.3118H190.15C189.551 65.0166 187.804 63.206 185.58 62.5718V59.2579Z" fill="white"/>
<path fill-rule="evenodd" clip-rule="evenodd" d="M185.584 59.2591V63.9699H182.079V62.573C179.856 63.2072 178.109 65.0178 177.509 67.313H178.934V70.8177H177.509C178.109 73.1129 179.856 74.9237 182.079 75.5579V78.8719C178.117 78.1267 174.998 74.9021 174.294 70.8177H172.433V67.313H174.294C174.998 63.2288 178.118 60.0039 182.079 59.2591V57.4689H185.584V59.2591Z" fill="white"/>
<path d="M235.551 12.345H235.21C235.163 12.9652 235.01 13.9806 234.727 15.3916C234.457 16.8159 233.056 22.8961 230.548 33.6316H240.013L236.564 18.57C236.081 16.3543 235.74 14.2708 235.551 12.345ZM244.958 55.7091L242.78 45.5013H228.016L225.674 55.7091H209.568L226.604 0.317043H245.1L261.134 55.7091H244.958ZM196.258 55.7091L185.274 32.3126C184.544 30.4528 184.108 29.187 183.967 28.488H183.826V55.7091H168.921V0.317043H183.826V26.6678H183.967C184.403 25.283 184.897 23.9906 185.45 22.8038L195.328 0.317065H213L198.943 26.734L214.342 55.7091L196.258 55.7091ZM149.819 55.7091L132.359 28.9757C130.982 26.8657 129.852 24.9666 128.981 23.2653H128.839C128.981 25.9953 129.051 29.0552 129.051 32.4577V55.7091H115.277V0.317032H129.357L146.087 25.7316C146.287 26.061 146.546 26.457 146.841 26.9318C147.135 27.3935 147.441 27.868 147.735 28.3561C148.042 28.844 148.324 29.3189 148.583 29.7804C148.842 30.2421 149.054 30.6641 149.184 31.0202H149.325C149.184 29.886 149.113 27.9341 149.113 25.1511V0.317043H162.887V55.7091H149.819ZM94.3619 55.7091V0.317043H109.267V55.7091H94.3619ZM74.1184 17.8975C74.1184 16.0378 73.6118 14.574 72.5993 13.4924C71.5988 12.4112 70.0094 11.8702 67.8543 11.8702H64.7937V24.5316H67.478C69.4795 24.5316 71.0806 23.8982 72.2931 22.6454C73.5058 21.3794 74.1184 19.7966 74.1184 17.8975ZM75.5543 55.7091L71.8574 43.7733C71.1512 41.4259 70.2209 39.5929 69.0907 38.2476C67.9488 36.9156 66.7128 36.2428 65.3821 36.2428H64.7937V55.7091H49.8888V0.317043H69.6679C76.5906 0.317043 81.7001 1.58324 84.9966 4.1286C88.293 6.6607 89.9415 10.4592 89.9415 15.5367C89.9415 19.3485 88.9875 22.54 87.0687 25.1117C85.1496 27.6966 82.289 29.5563 78.4981 30.7169V30.8749C80.5936 31.5873 82.3355 32.7608 83.7254 34.383C85.126 36.0053 86.3743 38.419 87.4688 41.6105L92.343 55.7091H75.5543ZM30.7988 27.4725C30.7988 24.7685 30.316 22.3287 29.3391 20.1659C28.3619 18.0031 26.9605 16.3414 25.1474 15.1541C23.3343 13.9673 21.1918 13.3738 18.7312 13.3738H14.905V42.6523H19.0725C22.6398 42.6523 25.4892 41.2809 27.6083 38.5378C29.7392 35.7944 30.7988 32.1016 30.7988 27.4725ZM46.6219 27.314C46.6219 32.9326 45.574 37.8911 43.4669 42.2039C41.3596 46.5168 38.3572 49.8536 34.4486 52.1878C30.5397 54.5352 26.0306 55.7091 20.9332 55.7091H0V0.317043H20.4853C37.9098 0.317043 46.6219 9.31183 46.6219 27.314Z" fill="white"/>
</svg>
