<svg width="438" height="136" viewBox="0 0 438 136" fill="none" xmlns="http://www.w3.org/2000/svg">
<path d="M278.526 110.829C278.526 109.522 278.187 108.534 277.515 107.865C276.836 107.196 275.846 106.862 274.537 106.862H272.908V114.751H274.835C277.298 114.751 278.526 113.444 278.526 110.829ZM287.604 110.502C287.604 112.683 287.109 114.621 286.124 116.316C285.141 118.011 283.729 119.318 281.904 120.245C280.079 121.172 277.95 121.636 275.527 121.636H272.908V131.896H264.32V99.976H276.002C280.011 99.976 282.949 100.827 284.815 102.537C286.674 104.239 287.604 106.899 287.604 110.502ZM261.161 117.312C261.161 122.427 260.116 126.234 258.034 128.719C255.944 131.204 252.729 132.443 248.386 132.443C244.329 132.443 241.256 131.204 239.154 128.719C237.057 126.234 236.005 122.487 236.005 117.486V99.976H244.635V117.851C244.635 119.895 244.974 121.469 245.659 122.579C246.344 123.68 247.321 124.235 248.597 124.235C249.879 124.235 250.856 123.718 251.528 122.677C252.2 121.636 252.533 120.101 252.533 118.072V99.976H261.161V117.312ZM224.666 110.107C224.666 109.035 224.373 108.191 223.79 107.569C223.213 106.945 222.298 106.634 221.056 106.634H219.292V113.93H220.839C221.992 113.93 222.915 113.565 223.614 112.843C224.313 112.113 224.666 111.201 224.666 110.107ZM225.493 131.896L223.363 125.018C222.955 123.665 222.42 122.609 221.768 121.834C221.111 121.066 220.398 120.679 219.631 120.679H219.292V131.896H210.703V99.976H222.101C226.09 99.976 229.035 100.706 230.934 102.173C232.834 103.632 233.783 105.82 233.783 108.746C233.783 110.943 233.234 112.782 232.128 114.264C231.022 115.754 229.374 116.825 227.189 117.494V117.585C228.397 117.995 229.401 118.672 230.202 119.607C231.009 120.541 231.728 121.932 232.359 123.771L235.168 131.896L225.493 131.896ZM208.203 129.791C207.132 130.474 205.53 131.09 203.393 131.63C201.263 132.169 199.228 132.444 197.294 132.444C192.308 132.444 188.447 131.045 185.734 128.248C183.02 125.451 181.663 121.53 181.663 116.483C181.663 113.101 182.349 110.091 183.719 107.462C185.089 104.84 187.023 102.841 189.513 101.473C192.003 100.113 194.94 99.4285 198.319 99.4285C200.795 99.4285 203.441 99.8239 206.25 100.607V109.005C204.94 108.336 203.678 107.873 202.47 107.614C201.263 107.356 199.947 107.227 198.516 107.227C196.155 107.227 194.275 108.024 192.878 109.613C191.481 111.201 190.782 113.382 190.782 116.156C190.782 118.816 191.365 120.898 192.539 122.396C193.713 123.893 195.347 124.645 197.451 124.645C198.427 124.645 199.153 124.585 199.615 124.463V119.903H194.16V112.607H208.203V129.791Z" fill="#465EA6"/>
<path d="M436.411 122.229C436.411 124.349 435.902 126.196 434.891 127.769C433.88 129.343 432.455 130.513 430.631 131.288C428.805 132.056 426.607 132.444 424.036 132.444C421.058 132.444 418.331 131.881 415.854 130.749V122C417.048 122.981 418.364 123.779 419.81 124.38C421.255 124.98 422.598 125.284 423.846 125.284C424.783 125.284 425.515 125.094 426.031 124.714C426.547 124.334 426.804 123.787 426.804 123.057C426.804 122.54 426.675 122.076 426.418 121.689C426.16 121.294 425.766 120.929 425.244 120.587C424.722 120.245 423.751 119.774 422.327 119.181C417.74 117.205 415.447 114.013 415.447 109.605C415.447 106.519 416.492 104.05 418.588 102.203C420.678 100.356 423.487 99.4285 427.015 99.4285C428.005 99.4285 428.92 99.4746 429.755 99.5653C430.59 99.649 431.35 99.7634 432.036 99.8924C432.713 100.029 433.67 100.28 434.905 100.653V108.776C432.504 107.317 430.149 106.588 427.829 106.588C426.872 106.588 426.106 106.786 425.522 107.188C424.939 107.591 424.647 108.138 424.647 108.838C424.647 109.498 424.884 110.053 425.352 110.494C425.821 110.928 426.804 111.497 428.304 112.197C431.255 113.527 433.345 114.993 434.572 116.582C435.801 118.163 436.411 120.047 436.411 122.229ZM415.274 122.229C415.274 124.349 414.765 126.196 413.755 127.769C412.744 129.343 411.319 130.513 409.494 131.288C407.669 132.056 405.471 132.443 402.899 132.443C399.922 132.443 397.194 131.881 394.718 130.748V122C395.912 122.981 397.228 123.779 398.673 124.38C400.118 124.98 401.461 125.284 402.71 125.284C403.646 125.284 404.379 125.094 404.895 124.714C405.411 124.334 405.668 123.787 405.668 123.057C405.668 122.54 405.539 122.076 405.281 121.689C405.023 121.294 404.63 120.929 404.107 120.587C403.585 120.245 402.615 119.774 401.19 119.181C396.604 117.205 394.311 114.013 394.311 109.605C394.311 106.519 395.356 104.05 397.452 102.203C399.542 100.356 402.35 99.4285 405.878 99.4285C406.869 99.4285 407.784 99.4746 408.62 99.5653C409.454 99.6489 410.213 99.7634 410.899 99.8924C411.577 100.029 412.534 100.28 413.769 100.653V108.776C411.367 107.317 409.013 106.588 406.693 106.588C405.736 106.588 404.97 106.786 404.386 107.188C403.803 107.591 403.51 108.138 403.51 108.838C403.51 109.498 403.748 110.053 404.216 110.494C404.684 110.928 405.668 111.497 407.167 112.197C410.118 113.526 412.208 114.993 413.436 116.582C414.664 118.163 415.274 120.047 415.274 122.229ZM379.552 106.907H379.355C379.328 107.264 379.24 107.85 379.077 108.663C378.92 109.484 378.114 112.987 376.668 119.173H382.123L380.135 110.494C379.856 109.217 379.66 108.017 379.552 106.907ZM384.972 131.896L383.717 126.013H375.21L373.859 131.896H364.578L374.395 99.976H385.054L394.294 131.896H384.972ZM355.166 131.896V114.4C355.166 112.752 355.213 110.943 355.302 108.967L355.362 107.5H355.125C354.704 110.008 354.379 111.741 354.154 112.706L349.955 131.896H341.888L337.499 112.934C337.377 112.455 337.065 110.647 336.562 107.5H336.325C336.509 112.486 336.604 115.601 336.604 116.848V131.896H329.073V99.976H341.929L345.844 117.304C345.938 117.661 346.061 118.383 346.216 119.477C346.367 120.564 346.461 121.408 346.502 122H346.624C346.767 120.648 346.997 119.06 347.316 117.22L350.973 99.976H363.633V131.896L355.166 131.896Z" fill="#465EA6"/>
<path fill-rule="evenodd" clip-rule="evenodd" d="M311.274 99.4827C317.919 100.733 323.151 106.141 324.331 112.991H327.461V118.87H324.332C323.151 125.721 317.919 131.13 311.274 132.38V135.379H305.396V124.475H311.274V126.821C315.002 125.757 317.933 122.72 318.938 118.87H316.558V112.991H318.939C317.935 109.142 315.003 106.105 311.274 105.041V99.4827Z" fill="#465EA6"/>
<path fill-rule="evenodd" clip-rule="evenodd" d="M311.279 99.4847V107.386H305.401V105.043C301.672 106.107 298.741 109.144 297.736 112.993H300.125V118.872H297.736C298.741 122.722 301.671 125.759 305.401 126.823V132.381C298.755 131.131 293.523 125.723 292.342 118.872H289.221V112.993H292.343C293.524 106.143 298.756 100.734 305.401 99.4847V96.482H311.279V99.4847Z" fill="#465EA6"/>
<path d="M395.089 20.7959H394.517C394.438 21.836 394.181 23.5393 393.707 25.9059C393.253 28.2949 390.904 38.4932 386.698 56.4998H402.574L396.788 31.2369C395.978 27.5206 395.406 24.0261 395.089 20.7959ZM410.868 93.5304L407.214 76.4087H382.451L378.522 93.5304H351.508L380.082 0.621387H411.105L438 93.5304H410.868ZM329.183 93.5304L310.76 54.2874C309.535 51.1681 308.804 49.0449 308.567 47.8724H308.331V93.5304H283.331V0.621387H308.331V44.8194H308.567C309.298 42.4968 310.128 40.329 311.055 38.3383L327.624 0.621425H357.264L333.686 44.9304L359.515 93.5304L329.183 93.5304ZM251.292 93.5304L222.006 48.6905C219.695 45.1513 217.8 41.966 216.339 39.1125H216.102C216.339 43.6915 216.458 48.8238 216.458 54.5309V93.5304H193.353V0.621368H216.971L245.032 43.2492C245.367 43.8017 245.801 44.4658 246.295 45.2623C246.789 46.0366 247.302 46.8325 247.796 47.6513C248.31 48.4695 248.783 49.2661 249.218 50.0402C249.652 50.8145 250.008 51.5225 250.225 52.1196H250.462C250.225 50.2174 250.107 46.9435 250.107 42.2756V0.621387H273.211V93.5304H251.292ZM158.273 93.5304V0.621387H183.273V93.5304H158.273ZM124.319 30.109C124.319 26.9898 123.469 24.5346 121.771 22.7203C120.092 20.9068 117.427 19.9994 113.812 19.9994H108.678V41.2365H113.181C116.538 41.2365 119.223 40.174 121.257 38.0726C123.291 35.9493 124.319 33.2945 124.319 30.109ZM126.727 93.5304L120.526 73.5105C119.342 69.5732 117.781 66.4987 115.886 64.2422C113.97 62.008 111.897 60.8795 109.665 60.8795H108.678V93.5304H83.6784V0.621387H116.854C128.465 0.621387 137.035 2.74518 142.564 7.01449C148.094 11.2616 150.859 17.6328 150.859 26.1492C150.859 32.5428 149.258 37.8958 146.04 42.2093C142.821 46.545 138.023 49.6644 131.665 51.611V51.876C135.179 53.0709 138.101 55.0392 140.432 57.7602C142.782 60.4812 144.875 64.5296 146.711 69.8829L154.887 93.5304H126.727ZM51.6587 46.1691C51.6587 41.6338 50.8489 37.5416 49.2104 33.9138C47.5713 30.2861 45.2207 27.499 42.1796 25.5075C39.1385 23.5169 35.545 22.5215 31.4177 22.5215H25.0001V71.6301H31.9903C37.9736 71.6301 42.7529 69.3299 46.3073 64.7289C49.8814 60.1275 51.6587 53.9336 51.6587 46.1691ZM78.1987 45.9033C78.1987 55.3273 76.4411 63.6443 72.9069 70.8782C69.3724 78.1122 64.3365 83.709 57.7805 87.624C51.2242 91.5613 43.6611 93.5304 35.1111 93.5304H0V0.621387H34.3599C63.586 0.621387 78.1987 15.7083 78.1987 45.9033Z" fill="#465EA6"/>
</svg>
