<svg width="70" height="71" viewBox="0 0 70 71" fill="none" xmlns="http://www.w3.org/2000/svg">
<rect y="0.929688" width="69.9922" height="69.9922" rx="34.9961" fill="#4E80BF"/>
<g clip-path="url(#clip0_4980_46707)">
<g clip-path="url(#clip1_4980_46707)">
<path d="M47.1211 32.0111L47.3561 31.9698V32.1558H48.9961C54.458 32.1558 58.7461 36.4439 58.7461 41.9058C58.7461 47.3821 53.9662 51.9095 48.5077 51.656C43.9434 51.4414 40.2992 48.2252 39.4414 43.8774L39.4016 43.6758H39.1961H30.7961H30.5901L30.5507 43.878C29.6735 48.381 25.796 51.6758 20.9961 51.6758C15.5342 51.6758 11.2461 47.3877 11.2461 41.9258C11.2461 36.4689 16.0263 31.9226 21.4836 32.1955L21.4844 32.1955C26.0488 32.4101 29.6929 35.6263 30.5508 39.9742L30.5906 40.1758H30.7961H32.1361H32.4931L32.371 39.8403L28.731 29.8403L28.6711 29.6758H28.4961H25.2461V26.1758H34.7461V29.6758H32.7761H32.4204L32.5409 30.0105L33.2609 32.0105L33.3204 32.1758H33.4961H43.1161H43.4735L43.3509 31.8401L40.4309 23.8401L40.371 23.6758H40.1961H35.2461V20.1758H40.1961C41.7697 20.1758 43.1769 21.1689 43.7213 22.6517C43.7214 22.6518 43.7214 22.6519 43.7214 22.6519L47.1211 32.0111ZM26.8727 44.0067L26.9858 43.6758H26.6361H21.2461V40.1758H26.6361H26.9858L26.8727 39.8449C26.0388 37.406 23.7654 35.6758 20.9961 35.6758C17.498 35.6758 14.7461 38.4277 14.7461 41.9258C14.7461 45.4239 17.498 48.1758 20.9961 48.1758C23.7654 48.1758 26.0388 46.4455 26.8727 44.0067ZM39.1961 40.1758H39.4037L39.4418 39.9717C39.714 38.5138 40.3363 37.2092 41.1953 36.0769L41.4995 35.6758H40.9961H34.9361H34.5787L34.7012 36.0115L36.1612 40.0115L36.2212 40.1758H36.3961H39.1961ZM45.331 37.2803L45.2074 36.9405L44.9332 37.1762C43.6013 38.3207 42.7461 39.9885 42.7461 41.9258C42.7461 45.4239 45.498 48.1758 48.9961 48.1758C52.4931 48.1758 55.2661 45.4249 55.2661 41.9258C55.2661 38.4277 52.5142 35.6758 49.0161 35.6758C48.9648 35.6758 48.9169 35.6838 48.8895 35.6884L48.885 35.6892C48.8513 35.6948 48.8419 35.6958 48.8361 35.6958H48.4793L48.6011 36.0311L50.4556 41.1358L47.1658 42.3258L45.331 37.2803Z" fill="white" stroke="#465EA6" stroke-width="0.5"/>
</g>
</g>
<defs>
<clipPath id="clip0_4980_46707">
<rect width="48" height="48" fill="white" transform="translate(10.9961 11.9258)"/>
</clipPath>
<clipPath id="clip1_4980_46707">
<rect width="48" height="48" fill="white" transform="translate(10.9961 11.9258)"/>
</clipPath>
</defs>
</svg>
