<svg width="70" height="71" viewBox="0 0 70 71" fill="none" xmlns="http://www.w3.org/2000/svg">
<rect y="0.96875" width="69.9922" height="69.9922" rx="34.9961" fill="#4E80BF"/>
<path d="M33.4961 41.4648V45.9648C33.4961 46.3898 33.6407 46.7461 33.9298 47.0336C34.219 47.3211 34.5774 47.4648 35.0048 47.4648C35.4323 47.4648 35.7878 47.3211 36.0711 47.0336C36.3544 46.7461 36.4961 46.3898 36.4961 45.9648V41.4648H40.9961C41.4211 41.4648 41.7773 41.3203 42.0648 41.0311C42.3523 40.7419 42.4961 40.3836 42.4961 39.9561C42.4961 39.5286 42.3523 39.1732 42.0648 38.8898C41.7773 38.6065 41.4211 38.4648 40.9961 38.4648H36.4961V33.9648C36.4961 33.5398 36.3515 33.1836 36.0623 32.8961C35.7731 32.6086 35.4148 32.4648 34.9873 32.4648C34.5598 32.4648 34.2044 32.6086 33.9211 32.8961C33.6378 33.1836 33.4961 33.5398 33.4961 33.9648V38.4648H28.9961C28.5711 38.4648 28.2148 38.6094 27.9273 38.8986C27.6398 39.1878 27.4961 39.5461 27.4961 39.9736C27.4961 40.4011 27.6398 40.7565 27.9273 41.0398C28.2148 41.3232 28.5711 41.4648 28.9961 41.4648H33.4961ZM17.9961 55.9648C17.1961 55.9648 16.4961 55.6648 15.8961 55.0648C15.2961 54.4648 14.9961 53.7648 14.9961 52.9648V26.3148C14.9961 25.5148 15.2961 24.8148 15.8961 24.2148C16.4961 23.6148 17.1961 23.3148 17.9961 23.3148H27.4961V18.9648C27.4961 18.1982 27.7961 17.5065 28.3961 16.8898C28.9961 16.2732 29.6961 15.9648 30.4961 15.9648H39.4961C40.2961 15.9648 40.9961 16.2732 41.5961 16.8898C42.1961 17.5065 42.4961 18.1982 42.4961 18.9648V23.3148H51.9961C52.7961 23.3148 53.4961 23.6148 54.0961 24.2148C54.6961 24.8148 54.9961 25.5148 54.9961 26.3148V52.9648C54.9961 53.7648 54.6961 54.4648 54.0961 55.0648C53.4961 55.6648 52.7961 55.9648 51.9961 55.9648H17.9961ZM30.4961 23.3148H39.4961V18.9648H30.4961V23.3148ZM17.9961 52.9648H51.9961V26.3148H17.9961V52.9648Z" fill="white"/>
</svg>
