<svg width="66" height="66" viewBox="0 0 66 66" fill="none" xmlns="http://www.w3.org/2000/svg">
<rect width="65.9766" height="65.9766" rx="32.9883" fill="#F3694C"/>
<path d="M25.1214 22.5301C25.4649 21.8123 25.6572 21.0085 25.6572 20.1597C25.6572 17.1232 23.1957 14.6616 20.1592 14.6616C17.1227 14.6616 14.6611 17.1232 14.6611 20.1597C14.6611 23.1962 17.1227 25.6577 20.1592 25.6577C21.008 25.6577 21.8119 25.4654 22.5296 25.1219L25.3427 27.935C24.3833 29.3836 23.8245 31.1208 23.8245 32.9884C23.8245 34.8561 24.3833 36.5933 25.3427 38.0419L22.9413 40.4433C22.6385 40.3623 22.3202 40.3192 21.9919 40.3192C19.9675 40.3192 18.3265 41.9602 18.3265 43.9845C18.3265 46.0089 19.9675 47.6499 21.9919 47.6499C24.0162 47.6499 25.6572 46.0089 25.6572 43.9845C25.6572 43.6562 25.6141 43.3379 25.5331 43.0351L27.9345 40.6337C29.3831 41.5931 31.1203 42.1519 32.988 42.1519C34.8556 42.1519 36.5928 41.5931 38.0414 40.6337L40.8545 43.4468C40.511 44.1645 40.3187 44.9684 40.3187 45.8172C40.3187 48.8537 42.7802 51.3153 45.8167 51.3153C48.8532 51.3153 51.3148 48.8537 51.3148 45.8172C51.3148 42.7807 48.8532 40.3192 45.8167 40.3192C44.9679 40.3192 44.1641 40.5115 43.4463 40.855L40.6332 38.0419C41.5926 36.5933 42.1514 34.8561 42.1514 32.9884C42.1514 31.1208 41.5926 29.3836 40.6332 27.935L43.0346 25.5336C43.3375 25.6145 43.6557 25.6577 43.9841 25.6577C46.0084 25.6577 47.6494 24.0167 47.6494 21.9924C47.6494 19.968 46.0084 18.327 43.9841 18.327C41.9597 18.327 40.3187 19.968 40.3187 21.9924C40.3187 22.3207 40.3619 22.639 40.4428 22.9418L38.0414 25.3432C36.5928 24.3838 34.8556 23.825 32.988 23.825C31.1203 23.825 29.3831 24.3838 27.9345 25.3432L25.1214 22.5301Z" fill="white"/>
</svg>
