<svg width="29" height="41" viewBox="0 0 29 41" fill="none" xmlns="http://www.w3.org/2000/svg">
<path d="M3.95703 38.9727C3.13203 38.9727 2.42578 38.6789 1.83828 38.0914C1.25078 37.5039 0.957031 36.7977 0.957031 35.9727V12.4727C0.957031 11.5102 1.29973 10.6862 1.98513 10.0008C2.67056 9.31536 3.49453 8.97266 4.45703 8.97266H8.95703V2.47266C8.95703 2.04766 9.10078 1.69141 9.38828 1.40391C9.67578 1.11641 10.032 0.972656 10.457 0.972656H19.457C19.882 0.972656 20.2383 1.11641 20.5258 1.40391C20.8133 1.69141 20.957 2.04766 20.957 2.47266V8.97266H25.957C26.782 8.97266 27.4883 9.26641 28.0758 9.85391C28.6633 10.4414 28.957 11.1477 28.957 11.9727V35.9727C28.957 36.7977 28.6633 37.5039 28.0758 38.0914C27.4883 38.6789 26.782 38.9727 25.957 38.9727C25.957 39.5393 25.7654 40.0143 25.382 40.3977C24.9987 40.781 24.5237 40.9727 23.957 40.9727C23.3904 40.9727 22.9154 40.781 22.532 40.3977C22.1487 40.0143 21.957 39.5393 21.957 38.9727H7.95703C7.95703 39.5393 7.76536 40.0143 7.38203 40.3977C6.9987 40.781 6.5237 40.9727 5.95703 40.9727C5.39036 40.9727 4.91536 40.781 4.53203 40.3977C4.1487 40.0143 3.95703 39.5393 3.95703 38.9727ZM10.957 8.97266H18.957V2.97266H10.957V8.97266ZM3.95703 35.9727H25.957V11.9727H3.95703V35.9727ZM7.45703 31.9727C7.45703 32.2393 7.55703 32.4727 7.75703 32.6727C7.95703 32.8727 8.19036 32.9727 8.45703 32.9727C8.7237 32.9727 8.95703 32.8727 9.15703 32.6727C9.35703 32.4727 9.45703 32.2393 9.45703 31.9727V15.9727C9.45703 15.706 9.35703 15.4727 9.15703 15.2727C8.95703 15.0727 8.7237 14.9727 8.45703 14.9727C8.19036 14.9727 7.95703 15.0727 7.75703 15.2727C7.55703 15.4727 7.45703 15.706 7.45703 15.9727V31.9727ZM13.957 31.9727C13.957 32.2393 14.057 32.4727 14.257 32.6727C14.457 32.8727 14.6904 32.9727 14.957 32.9727C15.2237 32.9727 15.457 32.8727 15.657 32.6727C15.857 32.4727 15.957 32.2393 15.957 31.9727V15.9727C15.957 15.706 15.857 15.4727 15.657 15.2727C15.457 15.0727 15.2237 14.9727 14.957 14.9727C14.6904 14.9727 14.457 15.0727 14.257 15.2727C14.057 15.4727 13.957 15.706 13.957 15.9727V31.9727ZM20.457 31.9727C20.457 32.2393 20.557 32.4727 20.757 32.6727C20.957 32.8727 21.1904 32.9727 21.457 32.9727C21.7237 32.9727 21.957 32.8727 22.157 32.6727C22.357 32.4727 22.457 32.2393 22.457 31.9727V15.9727C22.457 15.706 22.357 15.4727 22.157 15.2727C21.957 15.0727 21.7237 14.9727 21.457 14.9727C21.1904 14.9727 20.957 15.0727 20.757 15.2727C20.557 15.4727 20.457 15.706 20.457 15.9727V31.9727Z" fill="white"/>
</svg>
