<svg width="38" height="34" viewBox="0 0 38 34" fill="none" xmlns="http://www.w3.org/2000/svg">
<path d="M16.4962 33.9727H6.49617C6.07117 33.9727 5.71492 33.8289 5.42742 33.5414C5.13992 33.2539 4.99617 32.8977 4.99617 32.4727V17.9727H0.946169C0.596169 17.9727 0.358669 17.8143 0.233669 17.4977C0.108669 17.181 0.179502 16.906 0.446169 16.6727L17.9962 0.872656C18.269 0.60599 18.6039 0.472656 19.0008 0.472656C19.3977 0.472656 19.7295 0.60599 19.9962 0.872656L28.9962 8.82266V4.47266C28.9962 4.04766 29.1399 3.69141 29.4274 3.40391C29.7149 3.11641 30.0712 2.97266 30.4962 2.97266H31.4962C31.9212 2.97266 32.2774 3.11641 32.5649 3.40391C32.8524 3.69141 32.9962 4.04766 32.9962 4.47266V12.5227L37.5462 16.6727C37.8128 16.906 37.8837 17.181 37.7587 17.4977C37.6337 17.8143 37.3962 17.9727 37.0462 17.9727H32.9962V32.4727C32.9962 32.8977 32.8524 33.2539 32.5649 33.5414C32.2774 33.8289 31.9212 33.9727 31.4962 33.9727H21.4962V21.9727H16.4962V33.9727ZM7.99617 30.9727H13.4962V20.4727C13.4962 20.0477 13.6399 19.6914 13.9274 19.4039C14.2149 19.1164 14.5712 18.9727 14.9962 18.9727H22.9962C23.4212 18.9727 23.7774 19.1164 24.0649 19.4039C24.3524 19.6914 24.4962 20.0477 24.4962 20.4727V30.9727H29.9962V13.9227L18.9962 3.92266L7.99617 13.9227V30.9727ZM14.7462 13.4727H23.2462C23.2462 12.3727 22.8212 11.4643 21.9712 10.7477C21.1212 10.031 20.1295 9.67266 18.9962 9.67266C17.8628 9.67266 16.8712 10.0284 16.0212 10.7398C15.1712 11.4512 14.7462 12.3622 14.7462 13.4727Z" fill="white"/>
</svg>
