<svg width="70" height="71" viewBox="0 0 70 71" fill="none" xmlns="http://www.w3.org/2000/svg">
<rect y="0.953125" width="69.9922" height="69.9922" rx="34.9961" fill="#465EA6"/>
<path d="M20.9961 49.7492V51.9992C20.9961 52.5501 20.8061 53.0128 20.4261 53.3874C20.0461 53.7619 19.5655 53.9492 18.9843 53.9492C18.4255 53.9492 17.9544 53.7548 17.5711 53.3659C17.1878 52.977 16.9961 52.5048 16.9961 51.9492V36.2492L21.2461 23.4492C21.4128 22.9826 21.6878 22.6159 22.0711 22.3492C22.4544 22.0826 22.8961 21.9492 23.3961 21.9492H46.5961C47.0961 21.9492 47.5378 22.0826 47.9211 22.3492C48.3044 22.6159 48.5794 22.9826 48.7461 23.4492L52.9961 36.2492V51.9992C52.9961 52.5501 52.8061 53.0128 52.4261 53.3874C52.0461 53.7619 51.5655 53.9492 50.9843 53.9492C50.4255 53.9492 49.9544 53.7548 49.5711 53.3659C49.1878 52.977 48.9961 52.5048 48.9961 51.9492V49.7492H20.9961ZM21.1461 33.2492H48.8461L46.0961 24.9492H23.8961L21.1461 33.2492ZM25.2843 44.2492C26.0588 44.2492 26.7044 43.9867 27.2211 43.4617C27.7378 42.9367 27.9961 42.2992 27.9961 41.5492C27.9961 40.7715 27.7336 40.1103 27.2086 39.5659C26.6836 39.0214 26.0461 38.7492 25.2961 38.7492C24.5183 38.7492 23.8572 39.0203 23.3127 39.5625C22.7683 40.1046 22.4961 40.7629 22.4961 41.5375C22.4961 42.312 22.7672 42.9576 23.3093 43.4742C23.8515 43.9909 24.5098 44.2492 25.2843 44.2492ZM44.7461 44.2492C45.5239 44.2492 46.185 43.9867 46.7294 43.4617C47.2739 42.9367 47.5461 42.2992 47.5461 41.5492C47.5461 40.7715 47.275 40.1103 46.7328 39.5659C46.1907 39.0214 45.5324 38.7492 44.7578 38.7492C43.9833 38.7492 43.3378 39.0203 42.8211 39.5625C42.3044 40.1046 42.0461 40.7629 42.0461 41.5375C42.0461 42.312 42.3086 42.9576 42.8336 43.4742C43.3586 43.9909 43.9961 44.2492 44.7461 44.2492ZM19.9961 46.7492H49.9961V36.2492H19.9961V46.7492Z" fill="white"/>
</svg>
