<svg width="37" height="33" viewBox="0 0 37 33" fill="none" xmlns="http://www.w3.org/2000/svg">
<path d="M4.97266 28.7727V31.0227C4.97266 31.5735 4.78266 32.0362 4.40266 32.4108C4.02266 32.7854 3.54207 32.9727 2.96091 32.9727C2.40207 32.9727 1.93099 32.7782 1.54766 32.3893C1.16432 32.0004 0.972656 31.5282 0.972656 30.9727V15.2727L5.22266 2.47266C5.38932 2.00599 5.66432 1.63932 6.04766 1.37266C6.43099 1.10599 6.87266 0.972656 7.37266 0.972656H30.5727C31.0727 0.972656 31.5143 1.10599 31.8977 1.37266C32.281 1.63932 32.556 2.00599 32.7227 2.47266L36.9727 15.2727V31.0227C36.9727 31.5735 36.7827 32.0362 36.4027 32.4108C36.0227 32.7854 35.5421 32.9727 34.9609 32.9727C34.4021 32.9727 33.931 32.7782 33.5477 32.3893C33.1643 32.0004 32.9727 31.5282 32.9727 30.9727V28.7727H4.97266ZM5.12266 12.2727H32.8227L30.0727 3.97266H7.87266L5.12266 12.2727ZM9.26091 23.2727C10.0354 23.2727 10.681 23.0102 11.1977 22.4852C11.7143 21.9602 11.9727 21.3227 11.9727 20.5727C11.9727 19.7949 11.7102 19.1338 11.1852 18.5893C10.6602 18.0449 10.0227 17.7727 9.27266 17.7727C8.49489 17.7727 7.83377 18.0437 7.28931 18.5859C6.74487 19.128 6.47266 19.7864 6.47266 20.5609C6.47266 21.3354 6.74374 21.981 7.28591 22.4977C7.82804 23.0143 8.48637 23.2727 9.26091 23.2727ZM28.7227 23.2727C29.5004 23.2727 30.1615 23.0102 30.706 22.4852C31.2504 21.9602 31.5227 21.3227 31.5227 20.5727C31.5227 19.7949 31.2516 19.1338 30.7094 18.5893C30.1673 18.0449 29.5089 17.7727 28.7344 17.7727C27.9599 17.7727 27.3143 18.0437 26.7977 18.5859C26.281 19.128 26.0227 19.7864 26.0227 20.5609C26.0227 21.3354 26.2852 21.981 26.8102 22.4977C27.3352 23.0143 27.9727 23.2727 28.7227 23.2727ZM3.97266 25.7727H33.9727V15.2727H3.97266V25.7727Z" fill="white"/>
</svg>
