<svg width="70" height="71" viewBox="0 0 70 71" fill="none" xmlns="http://www.w3.org/2000/svg">
<rect y="0.976562" width="69.9922" height="69.9922" rx="34.9961" fill="#4E80BF"/>
<g clip-path="url(#clip0_4979_46547)">
<path d="M32.4962 51.9727H22.4962C22.0712 51.9727 21.7149 51.8289 21.4274 51.5414C21.1399 51.2539 20.9962 50.8977 20.9962 50.4727V35.9727H16.9462C16.5962 35.9727 16.3587 35.8143 16.2337 35.4977C16.1087 35.181 16.1795 34.906 16.4462 34.6727L33.9962 18.8727C34.269 18.606 34.6039 18.4727 35.0008 18.4727C35.3977 18.4727 35.7295 18.606 35.9962 18.8727L44.9962 26.8227V22.4727C44.9962 22.0477 45.1399 21.6914 45.4274 21.4039C45.7149 21.1164 46.0712 20.9727 46.4962 20.9727H47.4962C47.9212 20.9727 48.2774 21.1164 48.5649 21.4039C48.8524 21.6914 48.9962 22.0477 48.9962 22.4727V30.5227L53.5462 34.6727C53.8128 34.906 53.8837 35.181 53.7587 35.4977C53.6337 35.8143 53.3962 35.9727 53.0462 35.9727H48.9962V50.4727C48.9962 50.8977 48.8524 51.2539 48.5649 51.5414C48.2774 51.8289 47.9212 51.9727 47.4962 51.9727H37.4962V39.9727H32.4962V51.9727ZM23.9962 48.9727H29.4962V38.4727C29.4962 38.0477 29.6399 37.6914 29.9274 37.4039C30.2149 37.1164 30.5712 36.9727 30.9962 36.9727H38.9962C39.4212 36.9727 39.7774 37.1164 40.0649 37.4039C40.3524 37.6914 40.4962 38.0477 40.4962 38.4727V48.9727H45.9962V31.9227L34.9962 21.9227L23.9962 31.9227V48.9727ZM30.7462 31.4727H39.2462C39.2462 30.3727 38.8212 29.4643 37.9712 28.7477C37.1212 28.031 36.1295 27.6727 34.9962 27.6727C33.8628 27.6727 32.8712 28.0284 32.0212 28.7398C31.1712 29.4512 30.7462 30.3622 30.7462 31.4727Z" fill="white"/>
</g>
<defs>
<clipPath id="clip0_4979_46547">
<rect width="48" height="48" fill="white" transform="translate(10.9961 11.9727)"/>
</clipPath>
</defs>
</svg>
