<svg width="67" height="66" viewBox="0 0 67 66" fill="none" xmlns="http://www.w3.org/2000/svg">
<rect x="0.953125" width="65.9766" height="65.9766" rx="32.9883" fill="#57E3F2"/>
<path d="M44.9372 27.4901C48.9858 27.4901 52.2679 24.208 52.2679 20.1593C52.2679 16.1107 48.9858 12.8286 44.9372 12.8286C40.8885 12.8286 37.6064 16.1107 37.6064 20.1593C37.6064 20.8507 37.7021 21.5196 37.881 22.1537L28.1526 27.8286C26.8242 26.4879 24.9816 25.6574 22.945 25.6574C18.8963 25.6574 15.6143 28.9395 15.6143 32.9881C15.6143 37.0368 18.8963 40.3188 22.945 40.3188C24.9816 40.3188 26.8242 39.4884 28.1526 38.1476L37.881 43.8225C37.7021 44.4566 37.6064 45.1256 37.6064 45.8169C37.6064 49.8655 40.8885 53.1476 44.9372 53.1476C48.9858 53.1476 52.2679 49.8655 52.2679 45.8169C52.2679 41.7682 48.9858 38.4862 44.9372 38.4862C42.9006 38.4862 41.058 39.3166 39.7296 40.6574L30.0012 34.9825C30.18 34.3484 30.2757 33.6794 30.2757 32.9881C30.2757 32.2968 30.18 31.6278 30.0012 30.9937L39.7296 25.3188C41.058 26.6596 42.9006 27.4901 44.9372 27.4901Z" fill="white"/>
</svg>
