<svg width="67" height="66" viewBox="0 0 67 66" fill="none" xmlns="http://www.w3.org/2000/svg">
<rect x="0.90625" width="65.9766" height="65.9766" rx="32.9883" fill="#4E80BF"/>
<path d="M35.7269 27.2591C38.8887 26.4453 41.2249 23.5752 41.2249 20.1593C41.2249 16.1107 37.9429 12.8286 33.8942 12.8286C29.8456 12.8286 26.5635 16.1107 26.5635 20.1593C26.5635 23.5752 28.8997 26.4453 32.0615 27.2591V31.1554H26.5635C23.527 31.1554 21.0654 33.617 21.0654 36.6535V38.7171C17.9036 39.5309 15.5674 42.4011 15.5674 45.8169C15.5674 49.8655 18.8495 53.1476 22.8981 53.1476C26.9468 53.1476 30.2288 49.8655 30.2288 45.8169C30.2288 42.4011 27.8926 39.5309 24.7308 38.7171V36.6535C24.7308 35.6413 25.5513 34.8208 26.5635 34.8208H41.2249C42.2371 34.8208 43.0576 35.6413 43.0576 36.6535V38.7171C39.8958 39.5309 37.5596 42.4011 37.5596 45.8169C37.5596 49.8655 40.8417 53.1476 44.8903 53.1476C48.939 53.1476 52.221 49.8655 52.221 45.8169C52.221 42.4011 49.8848 39.5309 46.723 38.7171V36.6535C46.723 33.617 44.2614 31.1554 41.2249 31.1554H35.7269V27.2591Z" fill="white"/>
</svg>
