<svg width="49" height="49" viewBox="0 0 49 49" fill="none" xmlns="http://www.w3.org/2000/svg">
<rect x="0.5" y="0.606445" width="48" height="48" rx="24" fill="#4E80BF"/>
<path d="M22.8332 35.273H16.1666C15.8832 35.273 15.6457 35.1772 15.4541 34.9855C15.2624 34.7939 15.1666 34.5564 15.1666 34.273V24.6064H12.4666C12.2332 24.6064 12.0749 24.5008 11.9916 24.2897C11.9082 24.0786 11.9554 23.8953 12.1332 23.7397L23.8332 13.2064C24.0151 13.0286 24.2384 12.9397 24.503 12.9397C24.7676 12.9397 24.9888 13.0286 25.1666 13.2064L31.1666 18.5064V15.6064C31.1666 15.323 31.2624 15.0855 31.4541 14.8939C31.6457 14.7022 31.8832 14.6064 32.1666 14.6064H32.8332C33.1166 14.6064 33.3541 14.7022 33.5457 14.8939C33.7374 15.0855 33.8332 15.323 33.8332 15.6064V20.973L36.8666 23.7397C37.0443 23.8953 37.0916 24.0786 37.0082 24.2897C36.9249 24.5008 36.7666 24.6064 36.5332 24.6064H33.8332V34.273C33.8332 34.5564 33.7374 34.7939 33.5457 34.9855C33.3541 35.1772 33.1166 35.273 32.8332 35.273H26.1666V27.273H22.8332V35.273ZM17.1666 33.273H20.8332V26.273C20.8332 25.9897 20.9291 25.7522 21.1207 25.5605C21.3124 25.3689 21.5499 25.273 21.8332 25.273H27.1666C27.4499 25.273 27.6874 25.3689 27.8791 25.5605C28.0707 25.7522 28.1666 25.9897 28.1666 26.273V33.273H31.8332V21.9064L24.4999 15.2397L17.1666 21.9064V33.273ZM21.6666 21.6064H27.3332C27.3332 20.873 27.0499 20.2675 26.4832 19.7897C25.9166 19.3119 25.2554 19.073 24.4999 19.073C23.7443 19.073 23.0832 19.3102 22.5166 19.7844C21.9499 20.2587 21.6666 20.866 21.6666 21.6064Z" fill="white"/>
</svg>
