<svg width="49" height="49" viewBox="0 0 49 49" fill="none" xmlns="http://www.w3.org/2000/svg">
<rect x="0.5" y="0.606445" width="48" height="48" rx="24" fill="#4E80BF"/>
<path d="M15.1667 33.8065V35.3065C15.1667 35.6737 15.04 35.9822 14.7867 36.232C14.5333 36.4817 14.2129 36.6065 13.8255 36.6065C13.4529 36.6065 13.1389 36.4769 12.8833 36.2176C12.6278 35.9584 12.5 35.6436 12.5 35.2732V24.8065L15.3333 16.2732C15.4444 15.9621 15.6278 15.7176 15.8833 15.5399C16.1389 15.3621 16.4333 15.2732 16.7667 15.2732H32.2333C32.5667 15.2732 32.8611 15.3621 33.1167 15.5399C33.3722 15.7176 33.5556 15.9621 33.6667 16.2732L36.5 24.8065V35.3065C36.5 35.6737 36.3733 35.9822 36.12 36.232C35.8667 36.4817 35.5463 36.6065 35.1588 36.6065C34.7863 36.6065 34.4722 36.4769 34.2167 36.2176C33.9611 35.9584 33.8333 35.6436 33.8333 35.2732V33.8065H15.1667ZM15.2667 22.8065H33.7333L31.9 17.2732H17.1L15.2667 22.8065ZM18.0255 30.1399C18.5418 30.1399 18.9722 29.9649 19.3167 29.6149C19.6611 29.2649 19.8333 28.8399 19.8333 28.3399C19.8333 27.8213 19.6583 27.3806 19.3083 27.0176C18.9583 26.6547 18.5333 26.4732 18.0333 26.4732C17.5148 26.4732 17.0741 26.6539 16.7111 27.0154C16.3481 27.3768 16.1667 27.8157 16.1667 28.332C16.1667 28.8484 16.3474 29.2787 16.7088 29.6232C17.0703 29.9676 17.5091 30.1399 18.0255 30.1399ZM31 30.1399C31.5185 30.1399 31.9593 29.9649 32.3222 29.6149C32.6852 29.2649 32.8667 28.8399 32.8667 28.3399C32.8667 27.8213 32.6859 27.3806 32.3245 27.0176C31.9631 26.6547 31.5242 26.4732 31.0078 26.4732C30.4915 26.4732 30.0611 26.6539 29.7167 27.0154C29.3722 27.3768 29.2 27.8157 29.2 28.332C29.2 28.8484 29.375 29.2787 29.725 29.6232C30.075 29.9676 30.5 30.1399 31 30.1399ZM14.5 31.8065H34.5V24.8065H14.5V31.8065Z" fill="white"/>
</svg>
