<svg width="67" height="66" viewBox="0 0 67 66" fill="none" xmlns="http://www.w3.org/2000/svg">
<rect x="0.976562" width="65.9766" height="65.9766" rx="32.9883" fill="#F2BD57"/>
<path fill-rule="evenodd" clip-rule="evenodd" d="M13.8057 32.9881C13.8057 21.8543 22.8314 12.8286 33.9652 12.8286C45.099 12.8286 54.1247 21.8543 54.1247 32.9881C54.1247 44.1219 45.099 53.1476 33.9652 53.1476C22.8314 53.1476 13.8057 44.1219 13.8057 32.9881ZM33.9652 18.3267C34.9773 18.3267 35.7978 19.1472 35.7978 20.1593V27.2864C35.7978 28.2986 34.9773 29.1191 33.9652 29.1191C32.953 29.1191 32.1325 28.2986 32.1325 27.2864V20.1593C32.1325 19.1472 32.953 18.3267 33.9652 18.3267ZM46.7939 34.8208C47.8061 34.8208 48.6266 34.0003 48.6266 32.9881C48.6266 31.976 47.8061 31.1554 46.7939 31.1554H39.6668C38.6547 31.1554 37.8342 31.976 37.8342 32.9881C37.8342 34.0003 38.6547 34.8208 39.6668 34.8208H46.7939ZM33.9652 36.8571C34.9773 36.8571 35.7978 37.6776 35.7978 38.6898V45.8169C35.7978 46.8291 34.9773 47.6496 33.9652 47.6496C32.953 47.6496 32.1325 46.8291 32.1325 45.8169V38.6898C32.1325 37.6776 32.953 36.8571 33.9652 36.8571ZM28.2635 34.8208C29.2757 34.8208 30.0962 34.0003 30.0962 32.9881C30.0962 31.976 29.2757 31.1554 28.2635 31.1554H21.1364C20.1242 31.1554 19.3037 31.976 19.3037 32.9881C19.3037 34.0003 20.1242 34.8208 21.1364 34.8208H28.2635Z" fill="white"/>
</svg>
