<svg width="70" height="71" viewBox="0 0 70 71" fill="none" xmlns="http://www.w3.org/2000/svg">
<rect y="0.960938" width="69.9922" height="69.9922" rx="34.9961" fill="#465EA6"/>
<path d="M22.202 51.907C20.5647 51.907 19.1711 51.3404 18.0211 50.207C16.8711 49.0737 16.2961 47.6737 16.2961 46.007H15.9961C15.1711 46.007 14.4648 45.7133 13.8773 45.1258C13.2898 44.5383 12.9961 43.832 12.9961 43.007V22.957C12.9961 22.157 13.2961 21.457 13.8961 20.857C14.4961 20.257 15.1961 19.957 15.9961 19.957H41.9461C42.7711 19.957 43.4773 20.2508 44.0648 20.8383C44.6523 21.4258 44.9461 22.132 44.9461 22.957V28.307H49.4461C49.6961 28.307 49.9211 28.357 50.1211 28.457C50.3211 28.557 50.4961 28.707 50.6461 28.907L56.6961 36.957C56.7961 37.082 56.8711 37.2195 56.9211 37.3695C56.9711 37.5195 56.9961 37.682 56.9961 37.857V44.507C56.9961 44.932 56.8523 45.2883 56.5648 45.5758C56.2773 45.8633 55.9211 46.007 55.4961 46.007H53.4461C53.4461 47.6737 52.8731 49.0737 51.727 50.207C50.5809 51.3404 49.1892 51.907 47.552 51.907C45.9147 51.907 44.5211 51.3404 43.3711 50.207C42.2211 49.0737 41.6461 47.6737 41.6461 46.007H28.0961C28.0961 47.6737 27.5231 49.0737 26.377 50.207C25.2309 51.3404 23.8392 51.907 22.202 51.907ZM22.1961 48.907C22.9961 48.907 23.6794 48.6237 24.2461 48.057C24.8128 47.4904 25.0961 46.807 25.0961 46.007C25.0961 45.207 24.8128 44.5237 24.2461 43.957C23.6794 43.3904 22.9961 43.107 22.1961 43.107C21.3961 43.107 20.7128 43.3904 20.1461 43.957C19.5794 44.5237 19.2961 45.207 19.2961 46.007C19.2961 46.807 19.5794 47.4904 20.1461 48.057C20.7128 48.6237 21.3961 48.907 22.1961 48.907ZM15.9961 22.957V43.007H17.0961C17.6628 42.107 18.3801 41.3904 19.2481 40.857C20.1162 40.3237 21.0828 40.057 22.1481 40.057C23.2134 40.057 24.1878 40.332 25.0711 40.882C25.9544 41.432 26.6794 42.1404 27.2461 43.007H41.9461V22.957H15.9961ZM47.5461 48.907C48.3461 48.907 49.0294 48.6237 49.5961 48.057C50.1628 47.4904 50.4461 46.807 50.4461 46.007C50.4461 45.207 50.1628 44.5237 49.5961 43.957C49.0294 43.3904 48.3461 43.107 47.5461 43.107C46.7461 43.107 46.0628 43.3904 45.4961 43.957C44.9294 44.5237 44.6461 45.207 44.6461 46.007C44.6461 46.807 44.9294 47.4904 45.4961 48.057C46.0628 48.6237 46.7461 48.907 47.5461 48.907ZM44.9461 38.707H54.2461L48.6961 31.307H44.9461V38.707Z" fill="white"/>
</svg>
