<svg width="70" height="71" viewBox="0 0 70 71" fill="none" xmlns="http://www.w3.org/2000/svg">
<rect y="0.9375" width="69.9922" height="69.9922" rx="34.9961" fill="#4E80BF"/>
<path d="M23.9961 53.9336C23.1711 53.9336 22.4648 53.6398 21.8773 53.0523C21.2898 52.4648 20.9961 51.7586 20.9961 50.9336V27.4336C20.9961 26.4711 21.3388 25.6471 22.0242 24.9617C22.7096 24.2763 23.5336 23.9336 24.4961 23.9336H28.9961V17.4336C28.9961 17.0086 29.1398 16.6523 29.4273 16.3648C29.7148 16.0773 30.0711 15.9336 30.4961 15.9336H39.4961C39.9211 15.9336 40.2773 16.0773 40.5648 16.3648C40.8523 16.6523 40.9961 17.0086 40.9961 17.4336V23.9336H45.9961C46.8211 23.9336 47.5273 24.2273 48.1148 24.8148C48.7023 25.4023 48.9961 26.1086 48.9961 26.9336V50.9336C48.9961 51.7586 48.7023 52.4648 48.1148 53.0523C47.5273 53.6398 46.8211 53.9336 45.9961 53.9336C45.9961 54.5003 45.8044 54.9753 45.4211 55.3586C45.0378 55.7419 44.5628 55.9336 43.9961 55.9336C43.4294 55.9336 42.9544 55.7419 42.5711 55.3586C42.1878 54.9753 41.9961 54.5003 41.9961 53.9336H27.9961C27.9961 54.5003 27.8044 54.9753 27.4211 55.3586C27.0378 55.7419 26.5628 55.9336 25.9961 55.9336C25.4294 55.9336 24.9544 55.7419 24.5711 55.3586C24.1878 54.9753 23.9961 54.5003 23.9961 53.9336ZM30.9961 23.9336H38.9961V17.9336H30.9961V23.9336ZM23.9961 50.9336H45.9961V26.9336H23.9961V50.9336ZM27.4961 46.9336C27.4961 47.2003 27.5961 47.4336 27.7961 47.6336C27.9961 47.8336 28.2294 47.9336 28.4961 47.9336C28.7628 47.9336 28.9961 47.8336 29.1961 47.6336C29.3961 47.4336 29.4961 47.2003 29.4961 46.9336V30.9336C29.4961 30.6669 29.3961 30.4336 29.1961 30.2336C28.9961 30.0336 28.7628 29.9336 28.4961 29.9336C28.2294 29.9336 27.9961 30.0336 27.7961 30.2336C27.5961 30.4336 27.4961 30.6669 27.4961 30.9336V46.9336ZM33.9961 46.9336C33.9961 47.2003 34.0961 47.4336 34.2961 47.6336C34.4961 47.8336 34.7294 47.9336 34.9961 47.9336C35.2628 47.9336 35.4961 47.8336 35.6961 47.6336C35.8961 47.4336 35.9961 47.2003 35.9961 46.9336V30.9336C35.9961 30.6669 35.8961 30.4336 35.6961 30.2336C35.4961 30.0336 35.2628 29.9336 34.9961 29.9336C34.7294 29.9336 34.4961 30.0336 34.2961 30.2336C34.0961 30.4336 33.9961 30.6669 33.9961 30.9336V46.9336ZM40.4961 46.9336C40.4961 47.2003 40.5961 47.4336 40.7961 47.6336C40.9961 47.8336 41.2294 47.9336 41.4961 47.9336C41.7628 47.9336 41.9961 47.8336 42.1961 47.6336C42.3961 47.4336 42.4961 47.2003 42.4961 46.9336V30.9336C42.4961 30.6669 42.3961 30.4336 42.1961 30.2336C41.9961 30.0336 41.7628 29.9336 41.4961 29.9336C41.2294 29.9336 40.9961 30.0336 40.7961 30.2336C40.5961 30.4336 40.4961 30.6669 40.4961 30.9336V46.9336Z" fill="white"/>
</svg>
