<svg width="67" height="66" viewBox="0 0 67 66" fill="none" xmlns="http://www.w3.org/2000/svg">
<rect x="0.882812" width="65.9766" height="65.9766" rx="32.9883" fill="#A0CCF1"/>
<path d="M43.5709 30.6191L32.2957 41.8943C30.5703 38.8263 28.0329 36.2889 24.9649 34.5635L39.128 20.4005C39.8537 19.6747 40.2166 19.3118 40.6351 19.1759C41.0032 19.0563 41.3997 19.0563 41.7677 19.1759C42.1862 19.3118 42.5491 19.6747 43.2749 20.4005L46.4587 23.5843C47.1845 24.3101 47.5474 24.673 47.6833 25.0915C47.8029 25.4595 47.8029 25.856 47.6833 26.2241C47.5474 26.6426 47.1845 27.0055 46.4587 27.7312L46.1627 28.0272L49.1801 31.0447C50.2537 32.1182 50.2537 33.8588 49.1801 34.9324L44.33 39.7825C43.6143 40.4982 42.4539 40.4982 41.7382 39.7825C41.0225 39.0668 41.0225 37.9064 41.7382 37.1907L45.9404 32.9885L43.5709 30.6191Z" fill="white"/>
<path d="M22.4368 37.9673L21.0638 42.0863C20.4669 43.877 20.1684 44.7724 20.3807 45.3678C20.5655 45.886 20.9732 46.2937 21.4914 46.4785C22.0868 46.6908 22.9822 46.3923 24.7728 45.7954L28.8919 44.4224C29.0994 44.3532 29.2634 44.2986 29.4004 44.2501C27.9104 41.3276 25.5316 38.9488 22.6091 37.4588C22.5606 37.5958 22.506 37.7598 22.4368 37.9673Z" fill="white"/>
</svg>
