<svg width="67" height="66" viewBox="0 0 67 66" fill="none" xmlns="http://www.w3.org/2000/svg">
<rect x="0.929688" width="65.9766" height="65.9766" rx="32.9883" fill="#465EA6"/>
<path d="M26.5872 16.4941C21.5264 16.4941 17.4238 20.5967 17.4238 25.6576C17.4238 30.7184 21.5264 34.821 26.5872 34.821C31.6481 34.821 35.7507 30.7184 35.7507 25.6576C35.7507 20.5967 31.6481 16.4941 26.5872 16.4941Z" fill="white"/>
<path d="M47.4101 24.4241C46.7167 24.0708 45.996 23.9401 45.2715 23.8809C44.585 23.8248 43.7516 23.8248 42.7855 23.8249L39.416 23.8249V25.6576C39.416 32.7427 33.6724 38.4863 26.5872 38.4863H24.7546L24.7546 41.8558C24.7545 42.8219 24.7545 43.6553 24.8106 44.3418C24.8698 45.0663 25.0005 45.787 25.3538 46.4804C25.8809 47.515 26.722 48.3561 27.7565 48.8832C28.45 49.2365 29.1706 49.3672 29.8952 49.4264C30.5816 49.4825 31.415 49.4825 32.381 49.4824H42.7854C43.7515 49.4825 44.5851 49.4825 45.2715 49.4264C45.996 49.3672 46.7167 49.2365 47.4101 48.8832C48.4447 48.3561 49.2857 47.515 49.8129 46.4804C50.1662 45.787 50.2969 45.0663 50.3561 44.3418C50.4122 43.6554 50.4121 42.822 50.4121 41.856V31.4515C50.4121 30.4855 50.4122 29.6519 50.3561 28.9655C50.2969 28.241 50.1662 27.5203 49.8129 26.8269C49.2857 25.7923 48.4447 24.9512 47.4101 24.4241Z" fill="white"/>
</svg>
