<svg width="70" height="71" viewBox="0 0 70 71" fill="none" xmlns="http://www.w3.org/2000/svg">
<rect y="0.945312" width="69.9922" height="69.9922" rx="34.9961" fill="#4E80BF"/>
<path d="M19.489 35.6914C18.2271 35.6914 17.1628 35.2557 16.2961 34.3844C15.4294 33.513 14.9961 32.4463 14.9961 31.1844C14.9961 29.9224 15.4318 28.8581 16.3031 27.9914C17.1745 27.1247 18.2412 26.6914 19.5031 26.6914C20.7651 26.6914 21.8294 27.1271 22.6961 27.9985C23.5628 28.8698 23.9961 29.9365 23.9961 31.1985C23.9961 32.4604 23.5604 33.5247 22.689 34.3914C21.8177 35.2581 20.751 35.6914 19.489 35.6914ZM28.739 27.1914C27.4771 27.1914 26.4128 26.7557 25.5461 25.8844C24.6794 25.013 24.2461 23.9463 24.2461 22.6844C24.2461 21.4224 24.6818 20.3581 25.5531 19.4914C26.4245 18.6247 27.4912 18.1914 28.7531 18.1914C30.0151 18.1914 31.0794 18.6271 31.9461 19.4985C32.8128 20.3698 33.2461 21.4365 33.2461 22.6985C33.2461 23.9604 32.8104 25.0247 31.939 25.8914C31.0677 26.7581 30.001 27.1914 28.739 27.1914ZM41.239 27.1914C39.9771 27.1914 38.9128 26.7557 38.0461 25.8844C37.1794 25.013 36.7461 23.9463 36.7461 22.6844C36.7461 21.4224 37.1818 20.3581 38.0531 19.4914C38.9245 18.6247 39.9912 18.1914 41.2531 18.1914C42.5151 18.1914 43.5794 18.6271 44.4461 19.4985C45.3128 20.3698 45.7461 21.4365 45.7461 22.6985C45.7461 23.9604 45.3104 25.0247 44.439 25.8914C43.5677 26.7581 42.501 27.1914 41.239 27.1914ZM50.489 35.6914C49.2271 35.6914 48.1628 35.2557 47.2961 34.3844C46.4294 33.513 45.9961 32.4463 45.9961 31.1844C45.9961 29.9224 46.4318 28.8581 47.3031 27.9914C48.1745 27.1247 49.2412 26.6914 50.5031 26.6914C51.7651 26.6914 52.8294 27.1271 53.6961 27.9985C54.5628 28.8698 54.9961 29.9365 54.9961 31.1985C54.9961 32.4604 54.5604 33.5247 53.689 34.3914C52.8177 35.2581 51.751 35.6914 50.489 35.6914ZM24.2961 56.1914C22.8961 56.1914 21.7461 55.666 20.8461 54.6151C19.9461 53.5642 19.4961 52.323 19.4961 50.8914C19.4961 49.4914 19.9211 48.2497 20.7711 47.1664C21.6211 46.0831 22.5294 45.0414 23.4961 44.0414C24.2294 43.3081 24.9128 42.5331 25.5461 41.7164C26.1794 40.8997 26.7794 40.0581 27.3461 39.1914C28.3128 37.7247 29.3961 36.3581 30.5961 35.0914C31.7961 33.8247 33.2628 33.1914 34.9961 33.1914C36.7294 33.1914 38.2044 33.8247 39.4211 35.0914C40.6378 36.3581 41.7294 37.7414 42.6961 39.2414C43.2628 40.1081 43.8544 40.9414 44.4711 41.7414C45.0878 42.5414 45.7628 43.3081 46.4961 44.0414C47.4628 45.0414 48.3711 46.0831 49.2211 47.1664C50.0711 48.2497 50.4961 49.4914 50.4961 50.8914C50.4961 52.323 50.0461 53.5642 49.1461 54.6151C48.2461 55.666 47.0961 56.1914 45.6961 56.1914C43.8961 56.1914 42.1128 56.0414 40.3461 55.7414C38.5794 55.4414 36.7961 55.2914 34.9961 55.2914C33.1961 55.2914 31.4128 55.4414 29.6461 55.7414C27.8794 56.0414 26.0961 56.1914 24.2961 56.1914Z" fill="white"/>
</svg>
