<svg width="425" height="430" viewBox="0 0 425 430" fill="none" xmlns="http://www.w3.org/2000/svg">
<path d="M210.712 371.789C299.542 371.789 371.553 299.778 371.553 210.948C371.553 122.118 299.542 50.1068 210.712 50.1068C121.882 50.1068 49.8711 122.118 49.8711 210.948C49.8711 299.778 121.882 371.789 210.712 371.789Z" fill="#A0CCF1"/>
<mask id="mask0_5008_15134" style="mask-type:luminance" maskUnits="userSpaceOnUse" x="49" y="50" width="323" height="322">
<path d="M210.712 371.789C299.542 371.789 371.553 299.778 371.553 210.948C371.553 122.118 299.542 50.1068 210.712 50.1068C121.882 50.1068 49.8711 122.118 49.8711 210.948C49.8711 299.778 121.882 371.789 210.712 371.789Z" fill="white"/>
</mask>
<g mask="url(#mask0_5008_15134)">
<path d="M204.276 112.19C204.276 112.19 188.138 98.6823 169.011 112.778C149.884 126.873 147.493 155.064 127.171 161.525C106.849 167.985 93.1016 174.446 93.1016 188.541C93.1016 202.637 109.24 195.002 111.033 210.859C112.826 226.717 112.826 242.574 131.953 238.463C151.08 234.352 153.47 242.574 160.643 250.209C167.815 257.844 188.138 264.305 200.092 256.082L204.874 251.971L204.276 112.19Z" fill="#4E80BF"/>
<path d="M203.791 112.19C203.791 112.19 219.929 98.6823 239.056 112.778C258.183 126.873 260.574 155.064 280.896 161.525C301.218 167.985 314.965 174.446 314.965 188.541C314.965 202.637 298.827 195.002 297.034 210.859C295.241 226.717 295.241 242.574 276.114 238.463C256.987 234.352 254.597 242.574 247.424 250.209C240.251 257.844 219.929 264.305 207.975 256.082L203.193 251.971L203.791 112.19Z" fill="#4E80BF"/>
<path d="M164.977 161.525H203.828V324.211L182.311 251.971C182.311 251.971 188.288 234.939 179.92 225.542C171.552 216.145 161.391 210.272 164.977 161.525Z" fill="white"/>
<path d="M242.642 161.525H203.791V324.211L225.309 251.971C225.309 251.971 219.332 234.939 227.7 225.542C236.068 216.145 246.229 210.272 242.642 161.525Z" fill="white"/>
<path d="M242.188 133.759C233.575 124.52 220.668 119.833 203.827 119.826C203.821 119.826 203.815 119.826 203.809 119.826C203.803 119.826 203.797 119.826 203.791 119.826C186.949 119.832 174.043 124.52 165.431 133.759C153.688 146.355 154.334 162.685 154.368 163.374L157.814 163.2C157.807 163.047 157.197 147.703 167.93 136.189C175.868 127.672 187.94 123.353 203.809 123.35C219.657 123.353 231.718 127.661 239.657 136.155C250.369 147.617 249.812 163.004 249.803 163.2C249.803 163.2 249.803 163.202 249.803 163.203L251.509 163.286L253.25 163.374C253.283 162.685 253.929 146.356 242.188 133.759Z" fill="#A0CCF1"/>
<path d="M155.898 160.644H155.711C153.221 160.644 151.203 162.662 151.203 165.151V194.312C151.203 196.801 153.221 198.819 155.711 198.819H155.898C158.387 198.819 160.405 196.801 160.405 194.312V165.151C160.405 162.662 158.387 160.644 155.898 160.644Z" fill="#465EA6"/>
<path d="M226.105 212.633V209.078C235.242 209.078 242.016 206.569 246.239 201.622C251.415 195.558 250.932 187.87 250.926 187.793L254.195 187.519C254.222 187.897 254.783 196.846 248.644 204.037C243.776 209.741 236.192 212.633 226.105 212.633Z" fill="#A0CCF1"/>
<path d="M223.982 206.157H220.236C217.694 206.157 215.633 208.218 215.633 210.76V210.951C215.633 213.493 217.694 215.554 220.236 215.554H223.982C226.524 215.554 228.585 213.493 228.585 210.951V210.76C228.585 208.218 226.524 206.157 223.982 206.157Z" fill="#465EA6"/>
<path d="M251.721 198.819H251.909C254.398 198.819 256.416 196.801 256.416 194.312V165.151C256.416 162.662 254.398 160.644 251.909 160.644H251.721C249.232 160.644 247.214 162.662 247.214 165.151V194.312C247.214 196.801 249.232 198.819 251.721 198.819Z" fill="#465EA6"/>
<path d="M89.3665 334.489C88.8145 333.795 85.1825 301.306 110.884 286.916C136.586 272.527 167.966 269.003 182.311 251.971L199.047 267.535L203.828 290.44C203.828 290.44 204.426 371.636 204.725 371.636C205.024 371.636 132.103 388.228 89.3665 334.489Z" fill="#465EA6"/>
<path d="M188.039 331.133L199.046 267.535L182.31 251.971C182.31 251.971 175.995 258.629 167.666 263.13L188.039 331.133Z" fill="#A0CCF1"/>
<path d="M318.252 334.489C318.804 333.795 322.436 301.306 296.734 286.916C271.033 272.527 239.653 269.003 225.308 251.971L208.572 267.535L203.79 290.44C203.79 290.44 204.089 371.783 203.79 371.783C203.491 371.783 275.515 388.228 318.252 334.489Z" fill="#465EA6"/>
<path d="M219.58 331.133L208.572 267.535L225.308 251.971C225.308 251.971 232.026 259.288 239.952 263.13L219.58 331.133Z" fill="#A0CCF1"/>
<path d="M211.991 319.204C211.991 318.052 211.041 317.119 209.869 317.119C208.698 317.119 207.748 318.052 207.748 319.204C207.748 320.355 208.698 321.288 209.869 321.288C211.041 321.288 211.991 320.355 211.991 319.204Z" fill="white"/>
<path d="M211.851 335.956C211.851 334.808 210.92 333.876 209.771 333.876C208.623 333.876 207.691 334.808 207.691 335.956C207.691 337.105 208.623 338.036 209.771 338.036C210.92 338.036 211.851 337.105 211.851 335.956Z" fill="white"/>
<path d="M211.916 354.402C211.916 353.196 210.938 352.218 209.731 352.218C208.525 352.218 207.547 353.196 207.547 354.402C207.547 355.609 208.525 356.587 209.731 356.587C210.938 356.587 211.916 355.609 211.916 354.402Z" fill="white"/>
<path opacity="0.08" d="M203.918 371.816C207.124 372.572 276.596 386.871 318.253 334.489C318.806 333.795 322.437 301.305 296.736 286.916C277.869 276.354 255.95 271.641 239.948 263.146L239.953 263.13C239.801 263.06 239.657 262.983 239.506 262.912C236.937 261.527 234.528 260.038 232.311 258.41C238.661 256.648 244.295 253.541 247.425 250.209C254.597 242.574 256.988 234.352 276.115 238.463C295.242 242.574 295.242 226.717 297.035 210.859C298.828 195.002 314.966 202.637 314.966 188.541C314.966 174.446 301.219 167.985 280.896 161.525C260.574 155.064 258.183 126.873 239.057 112.778C221.274 99.6729 206.083 110.423 204.035 111.999" fill="#4E80BF"/>
</g>
<g filter="url(#filter0_d_5008_15134)">
<path d="M210.711 83.4966C233.768 83.4966 252.459 64.8053 252.459 41.7483C252.459 18.6913 233.768 0 210.711 0C187.654 0 168.963 18.6913 168.963 41.7483C168.963 64.8053 187.654 83.4966 210.711 83.4966Z" fill="#465EA6"/>
</g>
<path d="M186.289 51.8955V49.8944L193.804 41.6676C194.686 40.7041 195.412 39.8666 195.983 39.1551C196.553 38.4362 196.976 37.7618 197.25 37.1318C197.532 36.4944 197.673 35.8274 197.673 35.1307C197.673 34.3302 197.48 33.6373 197.094 33.0517C196.716 32.4662 196.198 32.0141 195.538 31.6954C194.878 31.3767 194.137 31.2174 193.315 31.2174C192.44 31.2174 191.677 31.399 191.024 31.7621C190.38 32.1179 189.879 32.6182 189.524 33.263C189.175 33.9078 189.001 34.6638 189.001 35.5309H186.377C186.377 34.1968 186.685 33.0258 187.3 32.0178C187.915 31.0099 188.753 30.2243 189.813 29.661C190.88 29.0977 192.077 28.8161 193.404 28.8161C194.738 28.8161 195.92 29.0977 196.95 29.661C197.98 30.2243 198.788 30.9839 199.374 31.94C199.959 32.8961 200.252 33.9597 200.252 35.1307C200.252 35.9682 200.1 36.7871 199.796 37.5876C199.5 38.3806 198.981 39.2663 198.24 40.2446C197.506 41.2155 196.487 42.4014 195.182 43.8021L190.068 49.2718V49.4497H200.652V51.8955H186.289ZM204.221 47.2263V44.9583L214.226 29.1274H215.872V32.6404H214.76L207.2 44.6026V44.7805H220.674V47.2263H204.221ZM214.938 51.8955V46.537V45.4808V29.1274H217.561V51.8955H214.938ZM230.098 34.5272L224.752 54.3906H223.002L228.349 34.5272H230.098ZM232.851 51.8955L240.271 37.2167V37.0871H231.716V35.3049H242.345V37.1843L234.957 51.8955H232.851Z" fill="white"/>
<g filter="url(#filter1_d_5008_15134)">
<path d="M126.493 345.921C137.691 331.879 135.385 311.418 121.343 300.221C107.301 289.023 86.8405 291.328 75.6426 305.37C64.4448 319.412 66.7504 339.873 80.7923 351.071C94.8343 362.269 115.295 359.963 126.493 345.921Z" fill="#4E80BF"/>
</g>
<path d="M101.578 331.526V331.339C101.598 329.35 101.807 327.767 102.202 326.59C102.598 325.414 103.161 324.461 103.889 323.732C104.618 323.003 105.493 322.331 106.514 321.717C107.128 321.342 107.68 320.899 108.169 320.389C108.659 319.868 109.044 319.27 109.325 318.593C109.617 317.916 109.763 317.166 109.763 316.343C109.763 315.323 109.523 314.438 109.044 313.688C108.565 312.938 107.925 312.36 107.123 311.954C106.321 311.548 105.431 311.345 104.452 311.345C103.598 311.345 102.775 311.522 101.984 311.876C101.192 312.23 100.531 312.787 100 313.547C99.4689 314.307 99.1617 315.302 99.0784 316.531H95.1421C95.2254 314.76 95.6836 313.245 96.5167 311.985C97.3602 310.725 98.4692 309.762 99.8438 309.095C101.229 308.429 102.765 308.096 104.452 308.096C106.285 308.096 107.878 308.46 109.232 309.189C110.596 309.918 111.648 310.918 112.387 312.188C113.137 313.459 113.512 314.906 113.512 316.531C113.512 317.676 113.335 318.712 112.981 319.639C112.637 320.566 112.137 321.394 111.481 322.123C110.835 322.852 110.054 323.497 109.138 324.06C108.222 324.633 107.487 325.237 106.935 325.872C106.384 326.497 105.983 327.241 105.733 328.105C105.483 328.97 105.347 330.048 105.327 331.339V331.526H101.578ZM103.577 340.774C102.806 340.774 102.145 340.498 101.593 339.946C101.041 339.394 100.765 338.733 100.765 337.962C100.765 337.191 101.041 336.53 101.593 335.978C102.145 335.426 102.806 335.15 103.577 335.15C104.348 335.15 105.009 335.426 105.561 335.978C106.113 336.53 106.389 337.191 106.389 337.962C106.389 338.472 106.259 338.941 105.998 339.368C105.748 339.795 105.41 340.138 104.983 340.399C104.566 340.649 104.098 340.774 103.577 340.774Z" fill="white"/>
<g filter="url(#filter2_d_5008_15134)">
<path d="M210.711 426C233.768 426 252.459 407.309 252.459 384.252C252.459 361.195 233.768 342.503 210.711 342.503C187.654 342.503 168.963 361.195 168.963 384.252C168.963 407.309 187.654 426 210.711 426Z" fill="white"/>
</g>
<path d="M219.003 371.732L214.484 371.602C214.101 370.507 213.591 369.477 212.969 368.526L215.631 364.868C216.021 364.332 215.938 363.588 215.441 363.151L212.232 360.327C211.735 359.89 210.986 359.903 210.505 360.358L207.208 363.471C206.189 362.981 205.105 362.61 203.974 362.373L203.267 357.888C203.164 357.234 202.58 356.766 201.919 356.809L197.653 357.081C196.992 357.124 196.472 357.662 196.453 358.324L196.323 362.877C195.24 363.258 194.219 363.765 193.278 364.38L189.589 361.696C189.054 361.306 188.31 361.388 187.872 361.886L185.049 365.095C184.611 365.592 184.625 366.341 185.079 366.822L188.218 370.146C187.733 371.156 187.365 372.229 187.128 373.348L182.61 374.06C181.956 374.163 181.488 374.747 181.53 375.408L181.803 379.674C181.845 380.335 182.384 380.855 183.045 380.874L187.618 381.005C187.995 382.084 188.497 383.102 189.107 384.041L186.417 387.738C186.028 388.273 186.11 389.017 186.607 389.455L189.817 392.278C190.314 392.716 191.062 392.702 191.543 392.248L194.86 389.116C195.872 389.606 196.949 389.978 198.072 390.218L198.781 394.717C198.884 395.371 199.469 395.839 200.129 395.797L204.396 395.524C205.056 395.482 205.576 394.943 205.595 394.281L205.725 389.743C206.816 389.364 207.844 388.858 208.793 388.242L212.459 390.91C212.995 391.299 213.739 391.217 214.176 390.72L217 387.51C217.437 387.013 217.424 386.265 216.969 385.783L213.863 382.494C214.358 381.472 214.733 380.385 214.973 379.25L219.439 378.546C220.093 378.442 220.561 377.858 220.518 377.198L220.245 372.931C220.203 372.27 219.665 371.751 219.003 371.732ZM201.513 383.543C197.514 383.799 194.064 380.764 193.808 376.764C193.552 372.765 196.587 369.315 200.587 369.059C204.586 368.804 208.036 371.838 208.291 375.838C208.547 379.837 205.513 383.287 201.513 383.543Z" fill="#A0CCF1"/>
<path d="M236.823 390.783L233.942 391.93C233.403 391.344 232.802 390.834 232.152 390.404L232.834 387.377C232.934 386.934 232.68 386.488 232.248 386.348L229.459 385.442C229.028 385.301 228.56 385.513 228.38 385.93L227.15 388.787C226.375 388.755 225.592 388.816 224.815 388.974L223.151 386.342C222.908 385.958 222.413 385.822 222.009 386.028L219.396 387.36C218.992 387.566 218.811 388.046 218.979 388.468L220.134 391.371C219.555 391.905 219.05 392.502 218.625 393.145L215.572 392.457C215.129 392.357 214.683 392.611 214.543 393.043L213.637 395.832C213.497 396.264 213.708 396.731 214.125 396.911L217.006 398.151C216.974 398.919 217.034 399.695 217.189 400.464L214.537 402.14C214.153 402.383 214.018 402.878 214.224 403.282L215.555 405.895C215.761 406.3 216.242 406.481 216.664 406.313L219.579 405.152C220.11 405.73 220.702 406.234 221.342 406.66L220.652 409.719C220.553 410.162 220.807 410.608 221.238 410.748L224.027 411.654C224.459 411.795 224.927 411.583 225.106 411.166L226.344 408.292C227.114 408.326 227.893 408.267 228.666 408.113L230.335 410.754C230.578 411.138 231.073 411.274 231.478 411.067L234.09 409.736C234.495 409.53 234.676 409.05 234.508 408.628L233.356 405.734C233.941 405.199 234.45 404.601 234.88 403.955L237.914 404.639C238.357 404.739 238.803 404.485 238.944 404.053L239.85 401.264C239.99 400.832 239.778 400.365 239.361 400.185L236.511 398.958C236.545 398.18 236.486 397.393 236.328 396.613L238.949 394.956C239.333 394.713 239.469 394.218 239.263 393.813L237.931 391.201C237.725 390.796 237.245 390.615 236.823 390.783ZM229.019 402.974C226.57 404.222 223.573 403.249 222.325 400.8C221.077 398.351 222.05 395.354 224.499 394.106C226.948 392.857 229.945 393.831 231.193 396.28C232.441 398.729 231.468 401.726 229.019 402.974Z" fill="#465EA6"/>
<g filter="url(#filter3_d_5008_15134)">
<path d="M42.1799 252.696C65.2369 252.696 83.9282 234.005 83.9282 210.948C83.9282 187.891 65.2369 169.199 42.1799 169.199C19.123 169.199 0.431641 187.891 0.431641 210.948C0.431641 234.005 19.123 252.696 42.1799 252.696Z" fill="#465EA6"/>
</g>
<path d="M63.6451 186.413H28.0918V233.963H63.6451V186.413Z" fill="white"/>
<path d="M43.8522 192.548H33.2131C32.8548 192.548 32.5645 192.839 32.5645 193.197V193.353C32.5645 193.711 32.8548 194.002 33.2131 194.002H43.8522C44.2105 194.002 44.5008 193.711 44.5008 193.353V193.197C44.5008 192.839 44.2105 192.548 43.8522 192.548Z" fill="#4E80BF"/>
<path d="M59.7684 224.194H49.1291C48.7709 224.194 48.4805 224.485 48.4805 224.843V224.999C48.4805 225.357 48.7709 225.647 49.1291 225.647H59.7684C60.1266 225.647 60.417 225.357 60.417 224.999V224.843C60.417 224.485 60.1266 224.194 59.7684 224.194Z" fill="#4E80BF"/>
<path d="M58.1759 202.983H33.2131C32.8548 202.983 32.5645 203.273 32.5645 203.631V203.787C32.5645 204.145 32.8548 204.436 33.2131 204.436H58.1759C58.5342 204.436 58.8245 204.145 58.8245 203.787V203.631C58.8245 203.273 58.5342 202.983 58.1759 202.983Z" fill="#4E80BF"/>
<path d="M58.1759 207.403H33.2131C32.8548 207.403 32.5645 207.693 32.5645 208.051V208.207C32.5645 208.565 32.8548 208.856 33.2131 208.856H58.1759C58.5342 208.856 58.8245 208.565 58.8245 208.207V208.051C58.8245 207.693 58.5342 207.403 58.1759 207.403Z" fill="#4E80BF"/>
<path d="M33.213 211.762H58.176C58.534 211.762 58.8245 212.053 58.8245 212.41V212.566C58.8245 212.924 58.5339 213.215 58.1759 213.215H33.2131C32.8551 213.215 32.5645 212.924 32.5645 212.566V212.41C32.5645 212.053 32.855 211.762 33.213 211.762Z" fill="#4E80BF"/>
<path d="M58.1759 216.242H33.2131C32.8548 216.242 32.5645 216.533 32.5645 216.891V217.047C32.5645 217.405 32.8548 217.696 33.2131 217.696H58.1759C58.5342 217.696 58.8245 217.405 58.8245 217.047V216.891C58.8245 216.533 58.5342 216.242 58.1759 216.242Z" fill="#4E80BF"/>
<path d="M38.5406 196.181H33.213C32.8548 196.181 32.5645 196.471 32.5645 196.83V196.986C32.5645 197.344 32.8548 197.634 33.213 197.634H38.5406C38.8988 197.634 39.1891 197.344 39.1891 196.986V196.83C39.1891 196.471 38.8988 196.181 38.5406 196.181Z" fill="#4E80BF"/>
<path d="M24.5579 212.871L21.8617 214.571C21.5238 214.784 21.4227 215.231 21.6357 215.569L22.2118 216.482C22.4248 216.82 22.8713 216.921 23.2091 216.708L25.9054 215.008C26.2432 214.795 26.3444 214.349 26.1314 214.011L25.5552 213.097C25.3422 212.76 24.8957 212.658 24.5579 212.871Z" fill="#A0CCF1"/>
<path d="M21.8984 214.426L23.3557 216.737C23.7058 217.292 23.3894 218.127 22.6527 218.591L11.8239 225.419C11.0872 225.883 10.1981 225.809 9.84808 225.254L8.39079 222.942C8.04069 222.387 8.35709 221.553 9.09379 221.088L19.9226 214.261C20.6592 213.796 21.5484 213.871 21.8984 214.426Z" fill="#4E80BF"/>
<path opacity="0.47" d="M47.7294 209.463C48.8961 203.354 44.89 197.456 38.7815 196.29C32.673 195.123 26.7753 199.129 25.6086 205.238C24.4419 211.346 28.448 217.244 34.5565 218.411C40.665 219.577 46.5627 215.571 47.7294 209.463Z" fill="#A0CCF1"/>
<path d="M25.4536 210.296L44.4768 198.303C45.3482 197.753 46.5017 198.015 47.0512 198.886L47.2905 199.266C47.8398 200.137 47.5784 201.29 46.7072 201.839L27.6837 213.833C26.8124 214.383 25.6591 214.121 25.1097 213.25L24.8703 212.87C24.321 211.999 24.5824 210.846 25.4536 210.296Z" fill="white"/>
<path d="M48.849 202.885L27.7027 216.217C27.4171 216.397 27.3315 216.775 27.5116 217.06L27.9745 217.795C28.1546 218.08 28.5321 218.166 28.8178 217.986L49.9641 204.653C50.2497 204.473 50.3353 204.096 50.1552 203.81L49.6923 203.076C49.5122 202.79 49.1347 202.705 48.849 202.885Z" fill="white"/>
<path d="M48.5625 199.852C44.4124 193.27 35.7121 191.298 29.1298 195.448C22.5474 199.598 20.5756 208.298 24.7257 214.881C28.8757 221.463 37.5761 223.435 44.1584 219.285C50.7408 215.135 52.7126 206.434 48.5625 199.852ZM27.5238 213.116C24.3481 208.079 25.8569 201.422 30.8939 198.246C35.9309 195.07 42.5887 196.579 45.7644 201.616C48.9401 206.653 47.4313 213.311 42.3943 216.487C37.3573 219.662 30.6995 218.153 27.5238 213.116Z" fill="#4E80BF"/>
<g filter="url(#filter4_d_5008_15134)">
<path d="M343.35 123.639C356.05 110.939 356.05 90.3491 343.35 77.6493C330.65 64.9496 310.06 64.9496 297.36 77.6494C284.66 90.3491 284.66 110.939 297.36 123.639C310.06 136.339 330.65 136.339 343.35 123.639Z" fill="#4E80BF"/>
</g>
<path d="M326.229 81.9846H304.936C302.78 81.9846 301.016 83.7487 301.016 85.9045V106.194L305.785 100.148C306.142 99.6942 306.688 99.4296 307.266 99.4296H326.229C328.385 99.4296 330.149 97.6655 330.149 95.5097V85.9045C330.149 83.7487 328.385 81.9846 326.229 81.9846ZM308.769 92.7475C307.642 92.7475 306.729 91.834 306.729 90.7072C306.729 89.5802 307.642 88.6667 308.769 88.6667C309.896 88.6667 310.81 89.5802 310.81 90.7072C310.81 91.834 309.896 92.7475 308.769 92.7475ZM315.582 92.7475C314.456 92.7475 313.542 91.834 313.542 90.7072C313.542 89.5802 314.456 88.6667 315.582 88.6667C316.709 88.6667 317.623 89.5802 317.623 90.7072C317.623 91.834 316.709 92.7475 315.582 92.7475ZM322.525 92.7475C321.398 92.7475 320.484 91.834 320.484 90.7072C320.484 89.5802 321.398 88.6667 322.525 88.6667C323.651 88.6667 324.565 89.5802 324.565 90.7072C324.565 91.834 323.651 92.7475 322.525 92.7475Z" fill="white"/>
<path d="M319.027 105.786V112.273C319.027 113.728 320.219 114.92 321.674 114.92H334.48C334.87 114.92 335.239 115.098 335.481 115.405L338.701 119.488V105.786C338.701 104.33 337.51 103.139 336.054 103.139H321.674C320.219 103.139 319.027 104.33 319.027 105.786ZM332.087 109.029C332.087 108.268 332.704 107.652 333.465 107.652C334.226 107.652 334.843 108.268 334.843 109.029C334.843 109.79 334.226 110.407 333.465 110.407C332.704 110.407 332.087 109.79 332.087 109.029ZM327.486 109.029C327.486 108.268 328.103 107.652 328.864 107.652C329.625 107.652 330.242 108.268 330.242 109.029C330.242 109.79 329.625 110.407 328.864 110.407C328.103 110.407 327.486 109.79 327.486 109.029ZM322.798 109.029C322.798 108.268 323.415 107.652 324.176 107.652C324.937 107.652 325.554 108.268 325.554 109.029C325.554 109.79 324.937 110.407 324.176 110.407C323.415 110.407 322.798 109.79 322.798 109.029Z" fill="white"/>
<g filter="url(#filter5_d_5008_15134)">
<path d="M327.511 357.369C345.031 353.417 356.031 336.011 352.079 318.491C348.128 300.971 330.722 289.971 313.201 293.923C295.681 297.875 284.682 315.281 288.633 332.801C292.585 350.321 309.991 361.32 327.511 357.369Z" fill="#4E80BF"/>
</g>
<path d="M325.73 320.583C325.73 322.976 324.801 325.237 323.2 326.926C326.666 328.833 329.315 332.146 330.615 336.074H339.106C339.106 329.318 334.991 323.625 329.365 321.825C331.732 320.515 333.337 317.995 333.337 315.099C333.337 310.855 329.896 307.414 325.653 307.414C322.647 307.414 320.052 309.144 318.789 311.658C322.772 312.677 325.73 316.287 325.73 320.583Z" fill="white"/>
<path d="M320.22 327.31C322.587 326.001 324.191 323.48 324.191 320.584C324.191 316.34 320.751 312.9 316.507 312.9C312.264 312.9 308.823 316.34 308.823 320.584C308.823 323.46 310.406 325.963 312.745 327.28C307.065 329.043 302.898 334.761 302.898 341.559H329.96C329.96 334.803 325.846 329.11 320.22 327.31Z" fill="white"/>
<g filter="url(#filter6_d_5008_15134)">
<path d="M379.242 252.696C402.299 252.696 420.991 234.005 420.991 210.948C420.991 187.891 402.299 169.199 379.242 169.199C356.186 169.199 337.494 187.891 337.494 210.948C337.494 234.005 356.186 252.696 379.242 252.696Z" fill="#465EA6"/>
</g>
<path d="M402.497 203.791H355.986V232.942H402.497V203.791Z" fill="#A0CCF1"/>
<path d="M396.602 187.971H361.883V226.162H396.602V187.971Z" fill="white"/>
<path d="M376.824 193.974H366.782C366.43 193.974 366.145 194.26 366.145 194.612V194.639C366.145 194.991 366.43 195.276 366.782 195.276H376.824C377.176 195.276 377.461 194.991 377.461 194.639V194.612C377.461 194.26 377.176 193.974 376.824 193.974Z" fill="#4E80BF"/>
<path d="M391.914 222.328H381.872C381.52 222.328 381.234 222.614 381.234 222.966V222.993C381.234 223.345 381.52 223.63 381.872 223.63H391.914C392.266 223.63 392.551 223.345 392.551 222.993V222.966C392.551 222.614 392.266 222.328 391.914 222.328Z" fill="#4E80BF"/>
<path d="M390.404 203.323H366.782C366.43 203.323 366.145 203.609 366.145 203.961V203.987C366.145 204.34 366.43 204.625 366.782 204.625H390.404C390.756 204.625 391.042 204.34 391.042 203.987V203.961C391.042 203.609 390.756 203.323 390.404 203.323Z" fill="#4E80BF"/>
<path d="M390.404 207.283H366.782C366.43 207.283 366.145 207.569 366.145 207.921V207.948C366.145 208.3 366.43 208.585 366.782 208.585H390.404C390.756 208.585 391.042 208.3 391.042 207.948V207.921C391.042 207.569 390.756 207.283 390.404 207.283Z" fill="#4E80BF"/>
<path d="M390.404 211.189H366.782C366.43 211.189 366.145 211.475 366.145 211.827V211.854C366.145 212.206 366.43 212.491 366.782 212.491H390.404C390.756 212.491 391.042 212.206 391.042 211.854V211.827C391.042 211.475 390.756 211.189 390.404 211.189Z" fill="#4E80BF"/>
<path d="M390.404 215.204H366.782C366.43 215.204 366.145 215.489 366.145 215.841V215.868C366.145 216.22 366.43 216.506 366.782 216.506H390.404C390.756 216.506 391.042 216.22 391.042 215.868V215.841C391.042 215.489 390.756 215.204 390.404 215.204Z" fill="#4E80BF"/>
<path d="M371.788 197.229H366.782C366.43 197.229 366.145 197.515 366.145 197.867V197.893C366.145 198.246 366.43 198.531 366.782 198.531H371.788C372.14 198.531 372.425 198.246 372.425 197.893V197.867C372.425 197.515 372.14 197.229 371.788 197.229Z" fill="#4E80BF"/>
<path d="M402.497 233.925H355.986V204.774L379.242 219.349L402.497 204.774V233.925Z" fill="#A0CCF1"/>
<path opacity="0.08" d="M379.242 219.349L402.497 233.925H355.986L379.242 219.349Z" fill="#4E80BF"/>
<g filter="url(#filter7_d_5008_15134)">
<path d="M107.875 132.443C125.437 128.683 136.625 111.398 132.865 93.8359C129.105 76.2738 111.82 65.085 94.258 68.8452C76.6959 72.6053 65.5072 89.8904 69.2673 107.452C73.0274 125.015 90.3125 136.203 107.875 132.443Z" fill="white"/>
</g>
<path d="M106.047 92.9384C106.047 92.9384 114.037 92.9384 117.564 92.9385C119.658 92.9385 121.094 94.2686 121.301 96.1372C121.509 98.0058 119.58 99.0282 119.58 99.0282C119.58 99.0282 123.398 101.91 119.324 104.668C119.324 104.668 122.118 107.536 118.145 110.113C118.145 110.113 119.159 111.135 119.196 112.695C119.239 114.504 117.932 115.671 115.024 115.671H93.1094V98.3018C93.1094 98.3018 98.1094 92.2714 100.332 89.4933C103.654 85.3409 100.23 80.8801 103.238 81.8114C107.599 83.1609 108.221 89.4933 106.047 92.9384Z" fill="#A0CCF1"/>
<path d="M93.1698 98.2134H80.8164V115.671H93.1698V98.2134Z" fill="#465EA6"/>
<defs>
<filter id="filter0_d_5008_15134" x="168.963" y="0" width="86.5584" height="86.5589" filterUnits="userSpaceOnUse" color-interpolation-filters="sRGB">
<feFlood flood-opacity="0" result="BackgroundImageFix"/>
<feColorMatrix in="SourceAlpha" type="matrix" values="0 0 0 0 0 0 0 0 0 0 0 0 0 0 0 0 0 0 127 0" result="hardAlpha"/>
<feOffset dx="3.0623" dy="3.0623"/>
<feColorMatrix type="matrix" values="0 0 0 0 0 0 0 0 0 0 0 0 0 0 0 0 0 0 0.5 0"/>
<feBlend mode="normal" in2="BackgroundImageFix" result="effect1_dropShadow_5008_15134"/>
<feBlend mode="normal" in="SourceGraphic" in2="effect1_dropShadow_5008_15134" result="shape"/>
</filter>
<filter id="filter1_d_5008_15134" x="68.5469" y="293.125" width="68.1033" height="68.1043" filterUnits="userSpaceOnUse" color-interpolation-filters="sRGB">
<feFlood flood-opacity="0" result="BackgroundImageFix"/>
<feColorMatrix in="SourceAlpha" type="matrix" values="0 0 0 0 0 0 0 0 0 0 0 0 0 0 0 0 0 0 127 0" result="hardAlpha"/>
<feOffset dx="3.0623" dy="3.0623"/>
<feColorMatrix type="matrix" values="0 0 0 0 0 0 0 0 0 0 0 0 0 0 0 0 0 0 0.5 0"/>
<feBlend mode="normal" in2="BackgroundImageFix" result="effect1_dropShadow_5008_15134"/>
<feBlend mode="normal" in="SourceGraphic" in2="effect1_dropShadow_5008_15134" result="shape"/>
</filter>
<filter id="filter2_d_5008_15134" x="168.963" y="342.503" width="86.5584" height="86.5589" filterUnits="userSpaceOnUse" color-interpolation-filters="sRGB">
<feFlood flood-opacity="0" result="BackgroundImageFix"/>
<feColorMatrix in="SourceAlpha" type="matrix" values="0 0 0 0 0 0 0 0 0 0 0 0 0 0 0 0 0 0 127 0" result="hardAlpha"/>
<feOffset dx="3.0623" dy="3.0623"/>
<feColorMatrix type="matrix" values="0 0 0 0 0 0 0 0 0 0 0 0 0 0 0 0 0 0 0.5 0"/>
<feBlend mode="normal" in2="BackgroundImageFix" result="effect1_dropShadow_5008_15134"/>
<feBlend mode="normal" in="SourceGraphic" in2="effect1_dropShadow_5008_15134" result="shape"/>
</filter>
<filter id="filter3_d_5008_15134" x="0.431641" y="169.199" width="86.5584" height="86.5589" filterUnits="userSpaceOnUse" color-interpolation-filters="sRGB">
<feFlood flood-opacity="0" result="BackgroundImageFix"/>
<feColorMatrix in="SourceAlpha" type="matrix" values="0 0 0 0 0 0 0 0 0 0 0 0 0 0 0 0 0 0 127 0" result="hardAlpha"/>
<feOffset dx="3.0623" dy="3.0623"/>
<feColorMatrix type="matrix" values="0 0 0 0 0 0 0 0 0 0 0 0 0 0 0 0 0 0 0.5 0"/>
<feBlend mode="normal" in2="BackgroundImageFix" result="effect1_dropShadow_5008_15134"/>
<feBlend mode="normal" in="SourceGraphic" in2="effect1_dropShadow_5008_15134" result="shape"/>
</filter>
<filter id="filter4_d_5008_15134" x="287.836" y="68.1245" width="68.1014" height="68.1019" filterUnits="userSpaceOnUse" color-interpolation-filters="sRGB">
<feFlood flood-opacity="0" result="BackgroundImageFix"/>
<feColorMatrix in="SourceAlpha" type="matrix" values="0 0 0 0 0 0 0 0 0 0 0 0 0 0 0 0 0 0 127 0" result="hardAlpha"/>
<feOffset dx="3.0623" dy="3.0623"/>
<feColorMatrix type="matrix" values="0 0 0 0 0 0 0 0 0 0 0 0 0 0 0 0 0 0 0.5 0"/>
<feBlend mode="normal" in2="BackgroundImageFix" result="effect1_dropShadow_5008_15134"/>
<feBlend mode="normal" in="SourceGraphic" in2="effect1_dropShadow_5008_15134" result="shape"/>
</filter>
<filter id="filter5_d_5008_15134" x="287.83" y="293.119" width="68.115" height="68.116" filterUnits="userSpaceOnUse" color-interpolation-filters="sRGB">
<feFlood flood-opacity="0" result="BackgroundImageFix"/>
<feColorMatrix in="SourceAlpha" type="matrix" values="0 0 0 0 0 0 0 0 0 0 0 0 0 0 0 0 0 0 127 0" result="hardAlpha"/>
<feOffset dx="3.0623" dy="3.0623"/>
<feColorMatrix type="matrix" values="0 0 0 0 0 0 0 0 0 0 0 0 0 0 0 0 0 0 0.5 0"/>
<feBlend mode="normal" in2="BackgroundImageFix" result="effect1_dropShadow_5008_15134"/>
<feBlend mode="normal" in="SourceGraphic" in2="effect1_dropShadow_5008_15134" result="shape"/>
</filter>
<filter id="filter6_d_5008_15134" x="337.494" y="169.199" width="86.5584" height="86.5589" filterUnits="userSpaceOnUse" color-interpolation-filters="sRGB">
<feFlood flood-opacity="0" result="BackgroundImageFix"/>
<feColorMatrix in="SourceAlpha" type="matrix" values="0 0 0 0 0 0 0 0 0 0 0 0 0 0 0 0 0 0 127 0" result="hardAlpha"/>
<feOffset dx="3.0623" dy="3.0623"/>
<feColorMatrix type="matrix" values="0 0 0 0 0 0 0 0 0 0 0 0 0 0 0 0 0 0 0.5 0"/>
<feBlend mode="normal" in2="BackgroundImageFix" result="effect1_dropShadow_5008_15134"/>
<feBlend mode="normal" in="SourceGraphic" in2="effect1_dropShadow_5008_15134" result="shape"/>
</filter>
<filter id="filter7_d_5008_15134" x="68.5391" y="68.1178" width="68.115" height="68.1152" filterUnits="userSpaceOnUse" color-interpolation-filters="sRGB">
<feFlood flood-opacity="0" result="BackgroundImageFix"/>
<feColorMatrix in="SourceAlpha" type="matrix" values="0 0 0 0 0 0 0 0 0 0 0 0 0 0 0 0 0 0 127 0" result="hardAlpha"/>
<feOffset dx="3.0623" dy="3.0623"/>
<feColorMatrix type="matrix" values="0 0 0 0 0 0 0 0 0 0 0 0 0 0 0 0 0 0 0.5 0"/>
<feBlend mode="normal" in2="BackgroundImageFix" result="effect1_dropShadow_5008_15134"/>
<feBlend mode="normal" in="SourceGraphic" in2="effect1_dropShadow_5008_15134" result="shape"/>
</filter>
</defs>
</svg>
